<svg xmlns="http://www.w3.org/2000/svg" viewBox="516 83 571 708" width="571" height="708" fill-rule="nonzero">
  <title>Hermes Astroloji Programi</title>
  <defs>
    <linearGradient id="gKaduse" gradientUnits="userSpaceOnUse" x1="0" y1="89" x2="0" y2="613">
      <stop offset="0" stop-color="#e0a6b9"/>
      <stop offset="1" stop-color="#be8396"/>
    </linearGradient>
  </defs>
  <g fill="url(#gKaduse)">
    <path d="M 765.61,89.22 c -1.09,0.46 -1.21,0.9 -0.88,2.85 c 0.51,2.92 1.99,7.35 3.34,10 c 2.35,4.6 7.69,9.81 13.75,13.41 c 1.48,0.88 1.25,1.6 -0.93,2.94 c -4.22,2.59 -8.66,7.29 -10.99,11.64 c -1.65,3.08 -2.91,6.19 -2.91,7.16 c 0,0.39 -0.23,1.41 -0.5,2.27 c -0.72,2.26 -0.72,9.19 0,12.2 c 0.28,1.15 0.5,2.35 0.5,2.69 c 0,1.46 2.4,6.85 4.31,9.69 c 1.39,2.06 6.06,7.25 7.64,8.49 c 3.95,3.1 10.41,6.03 14.26,6.42 c 2.76,0.3 2.65,0 2.74,6.85 c 0.07,5.47 0.05,5.86 -0.41,6.44 c -0.49,0.6 -0.49,0.6 -10.01,0.72 c -8.7,0.11 -9.55,0.16 -9.95,0.57 c -0.38,0.36 -0.45,0.88 -0.45,2.8 c 0,3.75 -0.81,3.48 10.5,3.62 c 8.55,0.11 9.4,0.16 9.8,0.57 c 0.4,0.4 0.46,1.18 0.57,7.8 c 0.15,8.9 -0.03,8.45 3.39,8.59 c 3.69,0.15 4.16,-0.38 3.94,-4.26 c -0.21,-3.51 0.16,-11.59 0.55,-12.12 c 0.31,-0.41 1.09,-0.46 10.22,-0.57 c 9.05,-0.11 9.93,-0.16 10.32,-0.57 c 0.66,-0.65 0.66,-5.2 0,-5.85 c -0.4,-0.41 -1.25,-0.46 -9.88,-0.57 c -5.19,-0.07 -9.61,-0.21 -9.82,-0.33 c -0.23,-0.11 -0.53,-0.47 -0.68,-0.8 c -0.36,-0.79 -0.91,-8.79 -0.7,-10.19 c 0.28,-1.82 1.41,-2.69 3.54,-2.69 c 2,0 6.86,-1.94 11.07,-4.42 c 1.98,-1.15 3.02,-2.02 5.8,-4.83 c 3.49,-3.52 5.33,-5.94 6.9,-9.07 c 1.05,-2.09 2.34,-5.74 2.34,-6.64 c 0,-0.35 0.23,-1.45 0.51,-2.45 c 0.44,-1.57 0.5,-2.4 0.42,-6.03 c -0.05,-3.02 -0.2,-4.67 -0.53,-5.94 c -1.41,-5.44 -2.73,-8.7 -4.72,-11.75 c -1.39,-2.1 -7.49,-8.21 -9.44,-9.43 c -1.61,-1.01 -2.08,-1.51 -1.96,-2.11 c 0.05,-0.25 1.27,-1.16 2.76,-2.08 c 5.15,-3.15 9.69,-7.74 11.8,-11.96 c 1.68,-3.35 3.15,-8.24 3.15,-10.43 c 0,-2.34 -0.35,-2.7 -2.73,-2.84 c -2.35,-0.12 -3.08,0.29 -3.75,2.09 c -0.29,0.78 -0.53,1.6 -0.53,1.86 c 0,1.54 -2.64,6.76 -5.08,10.06 c -1.4,1.9 -5.33,5 -8.14,6.44 c -2.09,1.06 -7.06,2.51 -8.66,2.52 c -0.82,0.01 -2.29,0.11 -3.25,0.23 c -0.96,0.11 -3.77,0.1 -6.25,-0.03 c -5.3,-0.26 -7.6,-0.81 -11.38,-2.75 c -2.86,-1.46 -6.36,-4.41 -8.97,-7.6 c -2.19,-2.65 -2.76,-3.75 -4.3,-8.21 c -0.65,-1.91 -1.43,-3.71 -1.71,-4 c -0.41,-0.41 -0.89,-0.53 -2.33,-0.57 c -1,-0.04 -2.04,0.03 -2.33,0.15 z m 37.89,30.27 c 0.86,0.28 1.95,0.5 2.41,0.5 c 1.02,0 4.39,1.15 6.59,2.24 c 5.55,2.77 11.04,9.05 12.81,14.64 c 1.5,4.74 1.69,5.74 1.69,8.96 c 0,4.24 -0.88,7.76 -2.99,12.01 c -2.62,5.28 -4.24,7.22 -8.25,9.95 c -3.3,2.24 -6.41,3.7 -9.71,4.54 c -3.44,0.89 -8.88,0.95 -11.8,0.15 c -5.39,-1.48 -6.38,-1.9 -9.84,-4.24 c -4.8,-3.21 -8.96,-8.82 -10.26,-13.8 c -0.19,-0.75 -0.53,-1.89 -0.75,-2.54 c -0.55,-1.61 -0.57,-10.12 -0.04,-11.71 c 0.2,-0.59 0.49,-1.64 0.64,-2.33 c 1.11,-5.08 7.59,-12.59 13.38,-15.55 c 2.88,-1.46 5.16,-2.33 6.19,-2.33 c 0.45,0 1.55,-0.21 2.44,-0.49 c 2.25,-0.66 5.45,-0.66 7.5,-0.01 z"/>
    <path d="M 710.1,152.74 c -0.06,0.05 -41.94,0.11 -93.06,0.12 c -99.26,0.01 -93.79,-0.05 -93.79,1.15 c 0,0.7 1.54,3.91 2.81,5.86 c 1.4,2.16 6.85,7.59 9.56,9.53 c 2.98,2.12 7.08,4.17 10.94,5.46 c 1.9,0.62 3.65,1.14 3.9,1.14 c 0.25,0 1.11,0.23 1.91,0.5 c 0.8,0.28 1.99,0.5 2.64,0.5 c 0.65,0 1.66,0.17 2.26,0.4 c 2.04,0.75 7.58,0.88 34.6,0.8 c 33.35,-0.09 31.9,-0.1 44.48,0.16 c 10.49,0.23 10.49,0.23 11.2,0.86 c 0.81,0.74 2.05,4.05 1.81,4.83 c -0.21,0.68 -1.12,0.95 -3.06,0.95 c -0.93,0 -2.46,0.23 -3.42,0.5 c -1.06,0.3 -2.5,0.5 -3.67,0.5 c -1.05,0 -2.85,0.23 -4,0.5 c -1.45,0.35 -2.95,0.5 -4.95,0.5 c -2.12,0 -3.34,0.12 -4.62,0.5 c -1.04,0.3 -2.51,0.5 -3.62,0.5 c -1.05,0.01 -2.7,0.23 -3.75,0.5 c -1.32,0.35 -2.71,0.49 -4.75,0.5 c -2,0 -3.49,0.15 -4.88,0.5 c -1.26,0.31 -2.88,0.5 -4.38,0.5 c -1.54,0 -3.04,0.19 -4.25,0.5 c -1.35,0.35 -2.71,0.49 -4.85,0.5 c -2,0 -3.66,0.15 -5.12,0.49 c -1.39,0.31 -3.56,0.53 -6.15,0.61 c -2.2,0.07 -5.06,0.3 -6.38,0.51 c -1.36,0.21 -4.01,0.38 -6.21,0.39 c -4.67,0 -16.15,-0.41 -20.86,-0.76 c -5.26,-0.38 -5.81,0.15 -3.55,3.33 c 0.69,0.97 2.54,3.1 4.11,4.72 c 2.31,2.39 3.58,3.45 6.5,5.42 c 2,1.35 4.95,3.09 6.56,3.88 c 2.85,1.39 8.54,3.41 9.6,3.41 c 0.29,0 1.18,0.23 1.98,0.5 c 0.8,0.28 1.93,0.5 2.51,0.5 c 0.57,0 1.75,0.23 2.61,0.5 c 1.43,0.45 2.25,0.5 8.97,0.5 c 6.55,-0.01 7.61,-0.06 9.28,-0.5 c 1.06,-0.28 2.7,-0.49 3.79,-0.5 c 1.2,0 2.51,-0.19 3.5,-0.5 c 0.9,-0.28 2.3,-0.5 3.21,-0.5 c 0.9,0 2.41,-0.23 3.38,-0.5 c 0.96,-0.28 2.14,-0.5 2.62,-0.5 c 0.47,0 1.59,-0.23 2.46,-0.5 c 0.88,-0.28 2.05,-0.5 2.62,-0.5 c 0.57,0 1.75,-0.23 2.62,-0.5 c 0.88,-0.28 2.01,-0.5 2.52,-0.5 c 0.53,0 1.65,-0.23 2.51,-0.5 c 0.86,-0.28 2.09,-0.5 2.73,-0.5 c 0.64,0 1.94,-0.23 2.9,-0.5 c 0.96,-0.28 2.02,-0.5 2.38,-0.49 c 0.34,0 1.59,-0.23 2.75,-0.5 c 1.18,-0.26 2.71,-0.61 3.44,-0.75 c 3.29,-0.66 4.05,-0.82 5.75,-1.27 c 0.99,-0.28 2.1,-0.49 2.46,-0.49 c 0.36,0 1.52,-0.21 2.58,-0.49 c 3.05,-0.76 5.88,-1.11 6.49,-0.79 c 0.49,0.26 0.96,0.89 3.73,4.86 c 1.14,1.64 1.36,2.74 0.62,3.12 c -0.57,0.3 -9.57,3.29 -9.9,3.29 c -0.14,0 -1.66,0.44 -3.39,0.97 c -3.4,1.04 -4.65,1.4 -12.4,3.52 c -2.01,0.55 -5.19,1.35 -7,1.75 c -3.42,0.78 -4.34,1.01 -5.35,1.36 c -0.6,0.21 -1.34,0.39 -1.65,0.39 c -0.31,0 -1.26,0.23 -2.12,0.5 c -0.86,0.28 -1.91,0.5 -2.35,0.5 c -0.42,0 -1.49,0.23 -2.36,0.5 c -0.88,0.28 -2,0.5 -2.5,0.5 c -0.5,0 -1.7,0.23 -2.66,0.5 c -1.1,0.31 -2.5,0.5 -3.77,0.5 c -1.11,0 -3.09,0.23 -4.38,0.5 c -2.12,0.45 -3.35,0.49 -12.72,0.5 c -11.01,0.01 -11.54,0.06 -11.7,1.19 c -0.1,0.62 1.21,2 5.03,5.29 c 2.79,2.4 5.24,4.03 8.8,5.83 c 2.85,1.45 7.35,3.3 8.64,3.56 c 0.85,0.17 2.56,0.65 5.94,1.64 c 0.94,0.28 2.33,0.5 3.06,0.51 c 0.75,0 2.33,0.23 3.49,0.49 c 2.62,0.6 7.25,0.65 10.12,0.1 c 1.1,-0.21 3.24,-0.47 4.75,-0.6 c 1.51,-0.11 3.3,-0.39 3.98,-0.61 c 0.68,-0.21 1.59,-0.39 2.04,-0.39 c 0.71,0 3.9,-0.76 7.74,-1.84 c 9.7,-2.74 21.74,-7.2 28.34,-10.53 c 1.21,-0.6 3.36,-1.6 4.8,-2.21 c 1.44,-0.62 3.12,-1.36 3.74,-1.65 c 0.62,-0.28 1.48,-0.51 1.9,-0.53 c 0.81,0 3.36,1.44 6.47,3.66 c 1.57,1.12 1.75,1.32 1.75,2.1 c 0,0.76 -0.15,0.95 -1.38,1.76 c -4.16,2.74 -18.93,10.41 -24.38,12.66 c -3.91,1.62 -8.2,3.21 -11.25,4.16 c -1.24,0.4 -3.31,1.07 -4.62,1.52 c -2.74,0.94 -4.85,1.56 -8.38,2.5 c -6.22,1.64 -6.3,2.36 -0.55,5.28 c 4.6,2.34 9.29,4.06 13.3,4.89 c 0.69,0.14 2.04,0.47 3,0.74 c 0.96,0.26 2.31,0.47 3,0.49 c 0.69,0 2.21,0.23 3.38,0.49 c 3.1,0.71 10.28,0.71 12.54,0 c 0.97,-0.3 2.31,-0.5 3.46,-0.5 c 1.15,0 2.49,-0.2 3.46,-0.5 c 0.88,-0.28 1.88,-0.5 2.23,-0.5 c 0.99,0 7.56,-2.06 11.24,-3.52 c 3.15,-1.25 10.35,-4.97 13.2,-6.84 c 3.34,-2.17 6.95,-4.85 9.1,-6.72 c 0.88,-0.76 2.4,-2.01 3.39,-2.77 c 1.8,-1.38 1.8,-1.38 6.91,-1.09 c 9,0.53 15.28,0.34 18.48,-0.54 c 0.9,-0.25 2.16,-0.57 2.83,-0.72 c 2.9,-0.7 6.96,-3.35 8.68,-5.66 c 1.55,-2.1 1.65,-2.11 5.14,-0.75 c 3.54,1.38 6.58,2.42 8.99,3.08 c 3.4,0.93 6.26,1.56 7,1.56 c 0.93,0 3.81,0.64 4.54,1.01 c 1.18,0.61 1.19,0.72 1.38,16.23 c 0.1,9.19 0.28,15.14 0.45,16 c 0.16,0.82 0.36,6.67 0.5,14.62 c 0.15,9.53 0.33,14.06 0.6,16.12 c 0.29,2.04 0.4,5 0.4,10.16 c 0.01,8.8 0.09,8.55 -2.5,8.09 c -0.89,-0.15 -2.42,-0.5 -3.42,-0.76 c -0.99,-0.28 -2.11,-0.49 -2.5,-0.49 c -0.38,0 -1.4,-0.23 -2.27,-0.5 c -0.88,-0.28 -1.86,-0.5 -2.19,-0.5 c -0.34,0 -1.99,-0.4 -3.67,-0.9 c -1.68,-0.5 -3.61,-1.06 -4.3,-1.25 c -0.69,-0.19 -2.04,-0.57 -3,-0.85 c -0.96,-0.28 -2.56,-0.72 -3.55,-1 c -3.67,-1.01 -7.1,-2.3 -12.45,-4.69 c -6.58,-2.92 -10.85,-5.59 -14,-8.75 c -3.59,-3.59 -4.58,-5.99 -4.26,-10.31 c 0.21,-2.98 0.88,-4.54 2.65,-6.24 c 1.7,-1.62 2.99,-2.11 5.17,-1.96 c 1.81,0.14 2.61,0.46 5.94,2.46 c 3.01,1.8 10.18,4.49 11.97,4.49 c 0.42,0 1.56,0.23 2.52,0.5 c 2.17,0.62 6.79,0.69 8.88,0.12 c 0.76,-0.21 2.05,-0.49 2.88,-0.62 c 3.19,-0.53 6.83,-3.15 7.76,-5.64 c 0.7,-1.84 0.41,-4.55 -0.72,-6.8 c -1.34,-2.62 -3.04,-5.04 -5.96,-8.43 c -5.71,-6.64 -11.41,-10.22 -19.64,-12.4 c -2.77,-0.72 -2.89,-0.74 -9.5,-0.75 c -7.58,0 -8.15,0.09 -14.81,2.23 c -3.79,1.21 -6.08,2.24 -8.69,3.91 c -2.92,1.88 -7.15,5.25 -8.18,6.53 c -3.12,3.94 -4.01,5.24 -5.35,7.85 c -1.65,3.19 -2.79,6.28 -2.8,7.54 c 0,0.46 -0.23,1.79 -0.49,2.96 c -0.7,3.05 -0.7,8.93 0,11.38 c 0.28,0.96 0.5,2.04 0.5,2.4 c 0,1.04 1.4,4.83 3,8.1 c 1.35,2.75 2.24,4.19 5.16,8.3 c 1.26,1.76 5.24,5.61 8.1,7.84 c 5.17,4.03 14.35,9.32 19.86,11.5 c 4.11,1.61 18.84,6.49 19.61,6.49 c 0.19,0 1.09,0.21 2,0.49 c 0.9,0.26 2.49,0.7 3.51,0.97 c 2.76,0.74 6.47,1.8 7.7,2.19 c 0.59,0.2 1.32,0.35 1.64,0.35 c 0.31,0 1.24,0.21 2.05,0.47 c 0.82,0.25 2.05,0.57 2.74,0.72 c 2.42,0.51 3.76,0.84 5.38,1.3 c 0.9,0.25 2.02,0.54 2.5,0.64 c 0.49,0.09 1.01,0.29 1.19,0.42 c 0.84,0.68 0.29,1.09 -4.66,3.5 c -5.47,2.66 -8.56,4.64 -12.53,8 c -3.48,2.94 -6.7,6.91 -8.53,10.5 c -0.76,1.48 -1.73,4.39 -1.73,5.19 c 0,0.38 -0.23,1.32 -0.5,2.12 c -0.7,2.02 -0.7,6.2 0,8.41 c 0.28,0.88 0.5,1.77 0.5,2 c 0,0.4 0.95,3 1.95,5.34 c 1.6,3.75 6.88,9.34 12.14,12.84 c 4.21,2.81 9.05,5.46 12.54,6.88 c 1.51,0.61 3.42,1.41 4.25,1.79 c 2.84,1.26 8.25,3.44 11.25,4.5 c 8.4,3 10.36,3.84 16.62,7.15 c 7.2,3.81 13.62,8.28 16.75,11.64 c 3.79,4.08 5.34,6.09 8.06,10.46 c 1.96,3.16 4.44,9.64 4.44,11.62 c 0,0.51 0.23,1.99 0.5,3.27 c 0.62,2.98 0.62,5.34 0,7.72 c -0.28,1.02 -0.49,2.34 -0.5,2.9 c 0,1.14 -1.96,7.29 -2.94,9.22 c -0.35,0.69 -1.16,2.04 -1.8,3 c -0.65,0.96 -1.66,2.48 -2.26,3.38 c -1.45,2.15 -7.31,7.96 -10.36,10.28 c -4.72,3.58 -9.2,6.51 -11.28,7.38 c -1.24,0.51 -2.46,0.04 -6.92,-2.7 c -3.67,-2.25 -3.62,-2.67 0.62,-5.6 c 5.95,-4.1 7.69,-5.66 12.56,-11.38 c 2.36,-2.76 3.65,-4.67 4.83,-7.22 c 1.5,-3.24 2.33,-6.14 2.69,-9.5 c 0.66,-6.15 -0.39,-10.7 -3.84,-16.62 c -1.76,-3.04 -7.19,-8.35 -11.3,-11.07 c -4.06,-2.69 -11.76,-6.56 -17.25,-8.69 c -2.4,-0.94 -6.34,-2.48 -8.75,-3.44 c -2.4,-0.95 -5.16,-2.05 -6.12,-2.42 c -10.14,-3.98 -12.74,-5.21 -19.55,-9.3 c -9.51,-5.69 -13.75,-9.31 -17.65,-15.07 c -0.55,-0.82 -1.39,-2.06 -1.85,-2.75 c -1.95,-2.92 -4.28,-8.21 -4.8,-11.01 c -0.14,-0.68 -0.42,-1.73 -0.64,-2.34 c -0.3,-0.86 -0.39,-2.26 -0.4,-6.75 c 0,-4.89 0.07,-5.95 0.53,-7.9 c 1.6,-6.8 3.31,-10.43 8.4,-17.85 c 0.99,-1.43 3.34,-3.74 5.94,-5.81 c 3.16,-2.54 3.04,-3.34 -0.71,-4.34 c -2.1,-0.56 -2.29,-0.57 -3.06,-0.21 c -1.01,0.47 -6.74,6.38 -8.07,8.31 c -0.54,0.78 -1.41,1.95 -1.96,2.64 c -1.39,1.71 -4.09,7.24 -5.12,10.51 c -1.96,6.12 -1.91,5.76 -1.93,13.75 c 0,8.07 0.05,8.49 2.04,14.79 c 1.55,4.88 3.12,7.84 7.1,13.25 c 1.68,2.29 8.12,8.86 10,10.19 c 5.35,3.79 6.83,4.76 9.5,6.29 c 7.29,4.16 14.35,7.38 23.57,10.72 c 4.8,1.75 5.54,2.21 5.15,3.25 c -0.07,0.2 -1.4,1.18 -2.94,2.16 c -3.08,1.98 -2.85,1.82 -5.44,3.64 c -2.61,1.82 -7.84,7.21 -9.72,10.04 c -1.62,2.42 -2.81,5.2 -3.25,7.55 c -0.14,0.75 -0.42,1.93 -0.62,2.6 c -0.55,1.8 -0.49,5.39 0.12,7.53 c 0.28,0.96 0.5,2.04 0.5,2.39 c 0,1.6 2.39,7.12 3.98,9.22 c 0.56,0.74 1.02,1.46 1.02,1.59 c 0,0.14 1.82,2.09 4.06,4.35 c 4.86,4.94 7.78,7.06 17.56,12.82 c 1.1,0.65 3.41,2.05 5.12,3.12 c 1.73,1.06 4.09,2.51 5.25,3.21 c 11.55,6.95 17.94,13.25 21.7,21.39 c 1.15,2.5 2.3,5.92 2.3,6.89 c 0,0.41 0.23,1.66 0.5,2.76 c 0.62,2.55 0.64,5.41 0.03,7.99 c -0.26,1.11 -0.61,2.62 -0.76,3.39 c -0.34,1.64 -0.91,2.56 -1.25,2.02 c -0.12,-0.2 -0.29,-0.88 -0.38,-1.5 c -0.09,-0.64 -0.39,-1.8 -0.65,-2.59 c -0.28,-0.79 -0.49,-1.7 -0.49,-2.01 c 0,-0.64 -1.07,-3.88 -2.12,-6.42 c -1.18,-2.83 -3.29,-6.28 -5.69,-9.25 c -1.84,-2.27 -3,-3.41 -5.62,-5.5 c -7.2,-5.7 -10.54,-7.76 -20.35,-12.66 c -7.86,-3.91 -13.18,-7.15 -20.09,-12.21 c -4.29,-3.15 -10.64,-9.49 -12.9,-12.9 c -2.31,-3.49 -3.14,-4.8 -3.67,-5.86 c -0.82,-1.64 -2.55,-7.14 -2.55,-8.14 c 0,-0.51 -0.23,-1.64 -0.5,-2.51 c -0.71,-2.26 -0.71,-8.07 0,-10.72 c 0.26,-1.02 0.49,-2.27 0.5,-2.79 c 0,-1.81 2.54,-7.69 4.99,-11.55 c 1.36,-2.16 4.97,-6.39 6.54,-7.64 c 2.26,-1.81 2.23,-2.69 -0.16,-4.21 c -2.51,-1.6 -2.76,-1.54 -5.64,1.39 c -1.32,1.34 -2.66,2.83 -2.99,3.31 c -0.31,0.47 -1.1,1.49 -1.74,2.25 c -2.55,3.05 -4.6,6.95 -6.11,11.62 c -1.68,5.22 -1.89,6.69 -1.89,13.18 c 0,5.15 0.06,6.04 0.53,7.7 c 1.39,4.96 2.61,8.31 4.24,11.55 c 2.02,4.01 2.65,5.03 4.26,6.95 c 0.62,0.75 1.5,1.88 1.91,2.5 c 1.04,1.52 7.72,8.01 10.18,9.88 c 1.07,0.82 3.73,2.69 5.86,4.12 c 2.95,2 3.92,2.77 3.99,3.23 c 0.06,0.46 -0.35,1.04 -1.76,2.5 c -3.96,4.06 -7.36,8.69 -9.2,12.49 c -0.9,1.85 -3,8.16 -3,9.01 c 0,0.36 -0.23,1.59 -0.5,2.73 c -0.72,3.02 -0.71,9.05 0.01,12.18 c 0.29,1.24 0.64,2.74 0.76,3.34 c 0.64,2.91 3.81,10.2 5.8,13.29 c 0.57,0.89 1.89,2.59 2.92,3.77 c 1.02,1.18 2.46,2.84 3.19,3.67 c 2.1,2.42 7.83,6.55 9.11,6.55 c 1.19,0 1.57,-0.81 1.57,-3.26 c 0,-1.82 -0.09,-2.3 -0.5,-2.83 c -2.51,-3.11 -4.06,-5.35 -4.88,-7.04 c -1.16,-2.41 -2.5,-6.83 -2.5,-8.22 c 0,-0.56 -0.23,-1.93 -0.5,-3.02 c -0.62,-2.55 -0.62,-4.55 0,-6.75 c 0.28,-0.96 0.5,-2.11 0.5,-2.55 c 0,-1.68 2.23,-6.88 4.38,-10.2 c 1.62,-2.52 7.69,-8.75 8.78,-9.03 c 1.55,-0.39 1.84,0.9 1.85,8.4 c 0.01,3.29 0.19,7.75 0.41,10.12 c 0.24,2.51 0.47,8.95 0.6,15.75 c 0.11,6.33 0.33,12.18 0.46,13 c 0.15,0.82 0.33,7.35 0.41,14.5 c 0.09,7.15 0.26,13.4 0.39,13.89 c 0.11,0.49 0.56,1.21 0.97,1.61 c 0.66,0.64 1,0.75 2.48,0.84 c 1.25,0.06 1.95,-0.03 2.6,-0.33 c 1.6,-0.76 1.68,-1.18 1.68,-9.43 c 0,-4.97 0.12,-8.46 0.4,-10.84 c 0.26,-2.42 0.45,-7.9 0.61,-17.75 c 0.12,-7.94 0.35,-14.91 0.5,-15.75 c 0.14,-0.82 0.34,-6.11 0.44,-11.76 c 0.16,-9.22 0.23,-10.32 0.61,-10.94 c 0.94,-1.43 2.52,-0.66 6,2.9 c 3.4,3.46 6.34,8.38 7.59,12.68 c 1.11,3.84 1.6,9.28 1.12,12.7 c -0.94,7 -2.42,10.72 -5.78,14.49 c -2.9,3.26 -2.88,3.21 -2.58,5.89 c 0.39,3.36 0.85,3.54 4.33,1.6 c 1.48,-0.82 2.74,-1.91 5.88,-5.06 c 4.35,-4.36 6.5,-7.11 8.53,-10.99 c 2.12,-4.05 4.33,-10.06 4.35,-11.88 c 0.01,-0.49 0.24,-1.71 0.5,-2.74 c 0.7,-2.6 0.7,-8.06 0,-10.89 c -0.28,-1.1 -0.5,-2.38 -0.5,-2.84 c 0,-1.65 -1.82,-6.97 -3.61,-10.54 c -1.77,-3.56 -3.34,-5.72 -6.61,-9.19 c -1.73,-1.81 -3.23,-3.55 -3.34,-3.85 c -0.29,-0.78 0.33,-1.57 2.01,-2.62 c 2.71,-1.69 5.92,-3.94 7.3,-5.09 c 0.76,-0.62 1.94,-1.56 2.62,-2.06 c 1.89,-1.36 8.05,-7.79 9.78,-10.19 c 4.21,-5.89 6.92,-12.21 8.31,-19.38 c 0.75,-3.81 0.76,-10.61 0.04,-13.38 c -0.28,-1.04 -0.49,-2.23 -0.5,-2.65 c 0,-1.4 -2.09,-7.14 -3.79,-10.43 c -1.05,-2.06 -2.36,-4.1 -3.58,-5.55 c -0.57,-0.69 -1.4,-1.76 -1.82,-2.39 c -0.42,-0.64 -2.64,-3.05 -4.91,-5.38 c -2.76,-2.83 -4.14,-4.41 -4.15,-4.78 c 0,-0.66 0.6,-1.15 4,-3.21 c 2.65,-1.61 4.41,-2.81 8.75,-5.97 c 2.8,-2.02 10.04,-9.22 11.55,-11.49 c 0.56,-0.85 1.6,-2.39 2.29,-3.41 c 0.69,-1.04 1.74,-2.77 2.33,-3.88 c 1.11,-2.09 2.96,-6.9 3.24,-8.39 c 0.09,-0.47 0.39,-1.65 0.69,-2.61 c 0.47,-1.61 0.51,-2.31 0.5,-9.12 c -0.03,-8.07 0.1,-7.15 -1.94,-14.5 c -0.86,-3.08 -4.06,-9.34 -6.85,-13.36 c -3.15,-4.55 -7.53,-8.94 -12.05,-12.09 c -2.61,-1.82 -7.61,-5.05 -9.25,-5.99 c -1.91,-1.07 -8.15,-3.84 -12.62,-5.58 c -5.28,-2.05 -5.62,-2.21 -5.79,-2.62 c -0.2,-0.53 0.33,-1.05 1.24,-1.24 c 0.44,-0.09 1.54,-0.38 2.42,-0.62 c 3.5,-1 9.68,-2.83 10.7,-3.15 c 0.59,-0.2 1.21,-0.35 1.39,-0.35 c 0.35,0 5.09,-1.48 9.41,-2.92 c 2.95,-0.99 7.55,-2.83 12.34,-4.92 c 5.99,-2.62 10.69,-5.72 15.04,-9.95 c 3.02,-2.95 4.12,-4.51 5.14,-7.41 c 1.73,-4.91 1.48,-9.78 -0.7,-13.78 c -0.85,-1.56 -1.74,-2.7 -3.42,-4.4 c -1.95,-1.95 -2.54,-2.38 -4.05,-2.98 c -1.68,-0.65 -1.94,-0.69 -4.86,-0.59 c -3.31,0.12 -4.36,0.44 -6.6,1.95 c -1.81,1.24 -6.26,3.49 -8.15,4.14 c -1.05,0.36 -2.92,0.74 -4.35,0.88 c -1.38,0.12 -3.11,0.3 -3.88,0.38 c -1.81,0.2 -8,-0.5 -9,-1.01 c -2.15,-1.11 -2.27,-2.19 -0.51,-4.88 c 1.69,-2.58 7.16,-8.53 9.69,-10.51 c 1.15,-0.91 2.92,-2.06 3.95,-2.58 c 2.39,-1.18 6.08,-2.41 7.2,-2.41 c 0.49,0 1.59,-0.23 2.46,-0.5 c 1.35,-0.42 2.3,-0.5 6.34,-0.5 c 4.01,0 5.03,0.07 6.5,0.5 c 0.96,0.28 2.05,0.5 2.41,0.5 c 1.88,0 8.2,2.89 12.15,5.54 c 2.83,1.9 6.67,5.88 8.16,8.43 c 1.57,2.69 3.4,7.16 3.4,8.31 c 0,0.5 0.23,1.61 0.5,2.48 c 0.7,2.17 0.7,6.49 0,8.71 c -0.28,0.88 -0.5,2.01 -0.5,2.54 c 0,0.88 -1.41,5.6 -2.04,6.85 c -0.15,0.29 -1.07,1.88 -2.05,3.52 c -1.55,2.61 -2.23,3.44 -5.21,6.42 c -3.42,3.41 -4.1,3.96 -9.15,7.4 c -4.9,3.34 -14.62,7.86 -21.8,10.15 c -6.45,2.06 -6.71,2.66 -2.24,5.29 c 1.36,0.79 2.19,1.11 2.86,1.11 c 0.82,0 3.35,-0.85 10.8,-3.65 c 3.67,-1.39 10.75,-5.38 16.24,-9.16 c 7.64,-5.28 14.14,-13.05 17.06,-20.44 c 0.69,-1.73 1.43,-3.98 1.64,-5 c 0.21,-1.04 0.5,-2.26 0.64,-2.75 c 0.14,-0.47 0.25,-3.24 0.26,-6.12 c 0,-5.84 -0.24,-7.35 -1.95,-12.25 c -2.21,-6.38 -7.5,-13.41 -12.64,-16.84 c -2.69,-1.79 -9.35,-5.06 -11.93,-5.85 c -5.67,-1.75 -5.21,-1.69 -13.5,-1.69 c -8.29,0 -7.79,-0.06 -13.5,1.69 c -6.26,1.91 -14.5,7.88 -18.4,13.32 c -2.31,3.24 -3.27,4.72 -4.22,6.6 c -0.78,1.54 -0.88,1.98 -0.88,3.62 c 0,2.8 0.29,3.52 2.12,5.35 c 1.69,1.7 4.05,2.92 6.56,3.4 c 0.65,0.12 1.93,0.41 2.81,0.62 c 2.35,0.55 6.49,0.5 9.05,-0.11 c 1.14,-0.28 2.44,-0.5 2.88,-0.5 c 2.01,0 7.6,-2.31 13.1,-5.41 c 2.95,-1.65 4.2,-1.88 6.22,-1.11 c 2.05,0.78 3.04,1.73 4.24,4.09 c 1.06,2.1 1.06,2.1 1.09,5.11 c 0.03,2.94 0,3.05 -0.82,4.72 c -0.66,1.35 -1.45,2.33 -3.74,4.59 c -2.6,2.58 -3.33,3.14 -6.78,5.16 c -5.21,3.09 -7.65,4.25 -12.49,5.96 c -0.89,0.31 -2.41,0.86 -3.38,1.21 c -0.96,0.35 -2.54,0.86 -3.5,1.15 c -0.96,0.29 -3.6,1.1 -5.88,1.79 c -2.26,0.7 -4.85,1.5 -5.75,1.77 c -1.95,0.59 -4.86,1.38 -6.75,1.82 c -0.75,0.17 -1.99,0.5 -2.75,0.71 c -2.41,0.69 -4.47,1.18 -4.99,1.18 c -0.28,0 -0.69,-0.28 -0.91,-0.62 c -0.36,-0.56 -0.39,-1.89 -0.26,-13.81 c 0.09,-7.25 0.26,-14.04 0.4,-15.06 c 0.15,-1.04 0.36,-7.45 0.5,-14.25 c 0.12,-6.97 0.4,-14.29 0.61,-16.75 c 0.25,-2.83 0.39,-7.26 0.4,-12.55 c 0,-8.74 0.06,-9.22 1.23,-9.68 c 1.29,-0.5 3.74,-1.02 4.84,-1.02 c 0.62,0 1.82,-0.23 2.69,-0.5 c 0.86,-0.28 1.75,-0.5 1.98,-0.5 c 1.05,0 8.46,-2.38 11.61,-3.73 c 2.14,-0.93 2.6,-0.79 4.99,1.48 c 3.16,2.99 5.5,4.21 10.93,5.72 c 1.04,0.29 2.33,0.53 2.88,0.53 c 0.55,0 1.79,0.23 2.75,0.5 c 2.42,0.69 7.5,0.69 11.07,0 c 2.92,-0.57 7.59,-0.66 8.46,-0.17 c 0.3,0.16 1.7,1.36 3.11,2.67 c 1.41,1.3 3.05,2.71 3.65,3.12 c 0.59,0.41 2.11,1.48 3.39,2.38 c 4.36,3.08 6.58,4.35 11.69,6.76 c 5.92,2.8 14.31,5.74 16.38,5.74 c 0.42,0 1.62,0.23 2.64,0.5 c 1.02,0.26 2.55,0.49 3.39,0.5 c 0.85,0 2.24,0.23 3.1,0.5 c 1.35,0.42 2.25,0.5 6.5,0.5 c 4.25,0 5.15,-0.07 6.5,-0.5 c 0.86,-0.28 2.1,-0.5 2.76,-0.5 c 0.65,0 1.9,-0.23 2.77,-0.5 c 0.88,-0.28 1.86,-0.5 2.2,-0.5 c 1.68,0 8.39,-2.45 12.89,-4.69 c 3.98,-1.98 5.38,-2.88 5.38,-3.44 c 0,-0.51 -1.19,-1.34 -2.35,-1.65 c -1.89,-0.49 -5.51,-1.52 -6.53,-1.85 c -0.55,-0.17 -1.9,-0.57 -3,-0.88 c -2.48,-0.69 -8.32,-2.61 -12,-3.95 c -2.95,-1.06 -16.52,-7.51 -20.25,-9.6 c -2.26,-1.27 -6.06,-3.45 -9.19,-5.25 c -2.5,-1.44 -2.29,-2.29 0.99,-3.92 c 0.85,-0.42 2.31,-1.26 3.25,-1.86 c 2.33,-1.49 3.09,-1.73 4.26,-1.31 c 0.51,0.19 3.08,1.4 5.69,2.71 c 9.12,4.56 13.36,6.34 22.12,9.26 c 7.9,2.64 14.14,4.42 15.38,4.42 c 0.41,0 1.54,0.23 2.5,0.5 c 1.1,0.31 2.5,0.5 3.76,0.5 c 1.23,0 2.76,0.2 3.88,0.5 c 2.75,0.72 11.07,0.72 13.61,0 c 0.96,-0.28 2.26,-0.5 2.9,-0.5 c 0.62,0 1.8,-0.23 2.6,-0.5 c 0.8,-0.28 1.71,-0.5 2.02,-0.5 c 1.21,0 7.44,-2.39 11.47,-4.41 c 5.34,-2.67 9.16,-5.24 12.19,-8.18 c 2.39,-2.33 2.91,-3.16 2.31,-3.75 c -0.34,-0.34 -8.4,-0.66 -16.73,-0.66 c -2.69,-0.01 -3.98,-0.12 -5.4,-0.5 c -1.09,-0.29 -2.71,-0.5 -3.88,-0.5 c -1.27,0 -2.58,-0.19 -3.59,-0.5 c -0.88,-0.28 -2.23,-0.5 -3,-0.5 c -0.78,-0.01 -2.25,-0.23 -3.29,-0.5 c -1.02,-0.28 -2.31,-0.49 -2.86,-0.5 c -0.54,0 -1.77,-0.21 -2.75,-0.46 c -0.96,-0.25 -2.89,-0.71 -4.26,-1.02 c -1.38,-0.31 -3.29,-0.78 -4.25,-1.04 c -0.96,-0.26 -2.01,-0.47 -2.35,-0.47 c -0.79,0 -5.79,-1.27 -9.9,-2.52 c -0.82,-0.25 -3.01,-0.91 -4.88,-1.48 c -1.85,-0.56 -4.66,-1.45 -6.25,-1.98 c -1.57,-0.53 -3.66,-1.19 -4.62,-1.49 c -5.97,-1.82 -6.62,-2.14 -6.62,-3.21 c 0,-0.78 0.46,-1.65 1.98,-3.75 c 2.15,-2.96 2.4,-3.16 3.6,-2.98 c 0.57,0.1 1.79,0.26 2.67,0.38 c 0.9,0.11 2.25,0.39 3,0.6 c 1.29,0.36 2.64,0.65 5.62,1.21 c 0.69,0.14 2.21,0.46 3.4,0.72 c 1.19,0.28 2.42,0.49 2.76,0.49 c 0.35,0 1.46,0.23 2.48,0.5 c 1.02,0.26 2.42,0.49 3.11,0.5 c 0.69,0 2.04,0.23 3,0.5 c 0.96,0.28 2.09,0.5 2.5,0.5 c 0.41,0 1.54,0.23 2.5,0.5 c 0.96,0.28 2.15,0.5 2.65,0.5 c 0.5,0 1.61,0.23 2.48,0.5 c 0.86,0.28 2.02,0.5 2.6,0.5 c 0.56,0 1.81,0.23 2.77,0.5 c 0.96,0.28 2.2,0.5 2.75,0.5 c 0.55,0 1.71,0.23 2.59,0.5 c 0.88,0.28 2.29,0.5 3.15,0.5 c 0.89,0 2.26,0.23 3.14,0.5 c 1.11,0.36 2.25,0.5 3.98,0.5 c 1.65,0 2.95,0.15 4.15,0.5 c 1.55,0.45 2.5,0.5 8.54,0.5 c 6.08,0 6.96,-0.05 8.38,-0.5 c 0.88,-0.28 2.2,-0.5 2.95,-0.5 c 1.36,0 2.31,-0.24 8.01,-2.04 c 7.81,-2.48 15.55,-7.54 20.7,-13.54 c 3.17,-3.7 3.88,-5.14 2.89,-5.96 c -0.47,-0.39 -4.67,-0.38 -11.96,0.04 c -6.53,0.38 -16.61,0.3 -19,-0.12 c -1.16,-0.21 -3.6,-0.36 -5.8,-0.38 c -2.76,0 -4.51,-0.14 -6.38,-0.5 c -1.41,-0.28 -3.41,-0.5 -4.45,-0.5 c -1.02,-0.01 -2.83,-0.24 -4,-0.5 c -1.36,-0.31 -3.08,-0.49 -4.75,-0.5 c -1.75,0 -3.3,-0.17 -4.62,-0.5 c -1.34,-0.33 -2.88,-0.5 -4.62,-0.5 c -1.64,0 -3.51,-0.2 -4.97,-0.5 c -1.29,-0.28 -3.15,-0.5 -4.12,-0.5 c -0.97,0 -2.67,-0.23 -3.77,-0.5 c -1.35,-0.34 -2.86,-0.5 -4.66,-0.5 c -1.68,0 -3.56,-0.19 -5.09,-0.5 c -1.5,-0.31 -3.41,-0.5 -4.99,-0.5 c -1.74,0 -3.14,-0.15 -4.4,-0.5 c -1.02,-0.26 -2.5,-0.49 -3.29,-0.5 c -0.79,0 -1.73,-0.14 -2.09,-0.3 c -0.6,-0.28 -0.65,-0.41 -0.55,-1.32 c 0.14,-1.26 1.31,-3.94 1.99,-4.55 c 0.47,-0.42 1.96,-0.45 29.91,-0.5 c 16.18,-0.04 36.05,-0.1 44.16,-0.16 c 14.09,-0.11 14.82,-0.14 16.38,-0.64 c 0.9,-0.29 2.09,-0.53 2.65,-0.53 c 0.57,0 1.52,-0.17 2.12,-0.39 c 0.61,-0.23 1.69,-0.5 2.41,-0.61 c 1.73,-0.29 5.96,-1.81 8.41,-3.02 c 6.7,-3.33 13.19,-9.39 17.36,-16.24 c 2.17,-3.56 2.1,-3.62 -4.76,-3.81 c -2.92,-0.07 -42.39,-0.16 -87.67,-0.17 c -45.3,-0.01 -82.45,-0.07 -82.56,-0.15 c -0.11,-0.06 -4,0 -8.65,0.15 c -9,0.3 -9.06,0.3 -13.94,1.91 c -2.41,0.8 -5.95,2.54 -8,3.91 c -1.69,1.15 -7.7,7.15 -8.3,8.3 c -0.21,0.41 -0.71,1.16 -1.11,1.66 c -1.01,1.3 -3.34,6.22 -3.98,8.46 c -0.51,1.79 -0.62,2.25 -1.21,5.12 c -1.48,7.29 -3.29,11.74 -7.19,17.71 c -1.74,2.65 -2.77,3.89 -5.91,7.03 c -6.16,6.17 -11.21,9.15 -19.77,11.64 c -0.95,0.28 -2.02,0.5 -2.38,0.5 c -0.36,0 -1.44,0.23 -2.4,0.5 c -0.96,0.28 -2.31,0.5 -3,0.5 c -1.55,0 -4.58,0.84 -5.17,1.44 c -0.7,0.7 -0.94,3.49 -0.95,11.44 c -0.01,5.56 -0.1,7.75 -0.41,9.38 c -0.34,1.77 -0.42,5.35 -0.59,21.62 c -0.16,16.57 -0.25,19.77 -0.59,21.38 c -0.34,1.55 -0.41,3.58 -0.42,11.5 c 0,7.47 -0.09,10.12 -0.39,11.88 c -0.26,1.56 -0.42,4.83 -0.53,10.72 c -0.14,8.47 -0.14,8.49 -0.71,9.06 c -0.69,0.69 -1.82,0.76 -3.41,0.23 c -0.59,-0.2 -1.8,-0.53 -2.7,-0.72 c -2.85,-0.64 -4.33,-1.12 -4.8,-1.6 c -0.88,-0.88 -1.26,-5.62 -1.45,-18.19 c -0.14,-8.14 -0.28,-11.79 -0.5,-12.5 c -0.23,-0.72 -0.38,-4.88 -0.51,-15.12 c -0.11,-8.43 -0.34,-16.25 -0.57,-19.38 c -0.28,-3.74 -0.4,-8.97 -0.4,-18.12 c -0.01,-7.29 -0.12,-13.8 -0.28,-15 c -0.15,-1.18 -0.35,-3.06 -0.46,-4.2 c -0.16,-1.62 -0.33,-2.2 -0.78,-2.67 c -0.62,-0.66 -2.35,-1.12 -4.22,-1.12 c -0.66,0 -1.91,-0.23 -2.77,-0.5 c -0.86,-0.28 -1.99,-0.5 -2.49,-0.5 c -1.54,0 -6.5,-1.54 -9.89,-3.08 c -2.02,-0.91 -3.58,-1.86 -8.5,-5.24 c -2.35,-1.61 -7.8,-7.22 -9.69,-9.97 c -3.16,-4.62 -5.94,-10.74 -7.05,-15.55 c -0.49,-2.11 -0.85,-3.73 -1.11,-4.97 c -0.97,-4.51 -2.76,-8.81 -5.11,-12.31 c -1.66,-2.48 -5.71,-6.95 -7.8,-8.61 c -2.88,-2.29 -7.21,-4.3 -12.36,-5.72 c -1.7,-0.46 -8.12,-1.09 -8.4,-0.8 z m -66.26,6.54 c 0.9,0.41 1.16,1.25 1.16,3.67 c 0,1.34 0.2,3.06 0.54,4.5 c 0.6,2.65 0.46,3.71 -0.55,4.22 c -0.49,0.25 -9.57,0.31 -42.75,0.33 c -41.19,0 -42.19,-0.01 -44,-0.5 c -1.02,-0.26 -2.14,-0.49 -2.48,-0.5 c -1.23,0 -6.21,-1.65 -9.64,-3.17 c -4.12,-1.85 -7.91,-4.19 -9.61,-5.96 c -0.84,-0.86 -1.51,-1.69 -1.51,-1.82 c 0,-0.14 0.25,-0.44 0.55,-0.65 c 0.5,-0.35 6.05,-0.39 54.12,-0.39 c 38.71,0 53.73,0.07 54.16,0.28 z m 70.31,0.1 c 0.68,0.2 1.94,0.49 2.81,0.64 c 2.1,0.34 6.26,2 8.29,3.31 c 2.17,1.41 5.91,5.14 7.31,7.3 c 0.61,0.96 1.62,2.76 2.25,4 c 1.18,2.35 3.19,8.25 3.19,9.34 c 0,0.69 0.55,2.61 2.04,7.12 c 1.23,3.71 4.45,10.41 6.28,13.04 c 1.98,2.85 9.26,10.15 12.06,12.09 c 3.58,2.48 8,4.94 10.86,6.05 c 3.6,1.4 7.34,2.61 9.14,2.99 c 6.1,1.24 5.62,0.74 5.62,5.89 c 0,3.83 0,3.83 -0.66,4.35 c -0.86,0.68 -2.75,0.68 -4.88,0.01 c -0.88,-0.28 -1.99,-0.5 -2.49,-0.5 c -0.91,0 -2.6,-0.45 -6.72,-1.79 c -2.83,-0.91 -10.46,-4.61 -13.62,-6.59 c -5.22,-3.29 -12.14,-8.72 -14.2,-11.19 c -0.57,-0.69 -1.79,-2.11 -2.7,-3.16 c -3.71,-4.31 -8.8,-12.74 -10.86,-18.01 c -3.86,-9.85 -4.69,-11.34 -8.44,-15.18 c -3.58,-3.66 -5.76,-4.88 -11.36,-6.35 c -2.81,-0.74 -2.81,-0.74 -28.25,-0.74 c -19.69,-0.01 -25.57,-0.07 -26.04,-0.31 c -1.14,-0.59 -1.54,-1.46 -1.77,-3.83 c -0.12,-1.24 -0.34,-2.84 -0.49,-3.59 c -0.54,-2.75 -0.23,-4.34 0.99,-4.95 c 0.49,-0.25 7.04,-0.31 30.52,-0.33 c 25.86,0 30.06,0.05 31.12,0.38 z m 233.9,0.38 c 0.45,0.56 0.49,0.85 0.36,2.75 c -0.31,4.24 -0.62,6.4 -1.11,7.54 c -0.94,2.14 1.48,1.96 -26.79,1.95 c -24.9,0 -25.16,0 -27.39,0.54 c -3.12,0.75 -5.7,1.64 -7.75,2.69 c -2.26,1.15 -6.42,5.15 -8.03,7.71 c -1.04,1.68 -4.06,8.29 -5.3,11.62 c -1.51,4.06 -6,11.96 -8.96,15.81 c -0.54,0.69 -1.27,1.74 -1.66,2.34 c -0.9,1.43 -5.14,5.62 -7.11,7.06 c -0.85,0.61 -2.92,2.16 -4.61,3.45 c -1.69,1.27 -3.8,2.73 -4.7,3.21 c -0.89,0.49 -2.58,1.43 -3.75,2.09 c -5.03,2.83 -15.03,6.49 -17.74,6.49 c -0.47,0 -1.7,0.24 -2.74,0.53 c -2.25,0.64 -4.41,0.56 -4.94,-0.16 c -0.39,-0.53 -0.42,-3.12 -0.1,-6.22 c 0.17,-1.71 0.3,-2.08 0.88,-2.56 c 0.38,-0.33 0.99,-0.57 1.44,-0.57 c 0.74,0 2.42,-0.4 6.95,-1.62 c 4.3,-1.16 9.71,-3.6 14.29,-6.44 c 4.83,-2.99 12.25,-10.21 14.96,-14.56 c 1.31,-2.11 4.74,-9.21 5.64,-11.7 c 0.65,-1.8 1.25,-3.88 2.11,-7.42 c 1.4,-5.69 3.19,-10.22 4.95,-12.61 c 0.51,-0.69 1.24,-1.73 1.6,-2.29 c 1.1,-1.7 3.9,-4.29 6.05,-5.58 c 3.92,-2.35 6.12,-3.24 10.28,-4.14 c 2.75,-0.59 2.75,-0.59 32.71,-0.55 c 29.96,0.04 29.96,0.04 30.46,0.66 z m 116.7,-0.25 c 0.39,0.6 0.33,0.71 -1.16,2.26 c -3.25,3.41 -9.22,6.55 -16.4,8.61 c -1.21,0.34 -2.48,0.62 -2.83,0.62 c -0.34,0 -1.64,0.23 -2.88,0.5 c -2.21,0.5 -2.99,0.5 -44.39,0.44 c -42.15,-0.06 -42.15,-0.06 -42.62,-0.65 c -0.6,-0.75 -0.6,-1.9 0.03,-4.29 c 0.3,-1.16 0.49,-2.7 0.5,-4.05 c 0,-2.36 0.26,-3.26 1.09,-3.66 c 0.36,-0.17 17.62,-0.24 54.49,-0.21 c 47.64,0.05 53.98,0.1 54.17,0.42 z m -360.62,19.02 c 0.69,0.14 2.06,0.35 3.05,0.47 c 1.16,0.15 2.36,0.51 3.35,1.01 c 1.93,0.97 3.98,2.84 3.98,3.64 c 0,0.69 -0.86,1.35 -1.76,1.35 c -0.36,0 -1.38,0.21 -2.26,0.46 c -1.56,0.46 -2.33,0.66 -4.85,1.27 c -3.83,0.93 -5.24,1.26 -7.5,1.75 c -6.88,1.49 -11.03,2.45 -13.16,3.05 c -0.91,0.25 -1.94,0.46 -2.26,0.46 c -0.34,0 -1.27,0.21 -2.09,0.47 c -0.82,0.25 -2.08,0.59 -2.8,0.75 c -0.72,0.15 -1.9,0.4 -2.62,0.55 c -0.72,0.16 -1.98,0.5 -2.8,0.75 c -0.81,0.26 -1.79,0.47 -2.15,0.47 c -0.38,0 -1.38,0.23 -2.24,0.5 c -0.95,0.3 -2.25,0.5 -3.31,0.5 c -1.66,0 -1.8,-0.04 -2.54,-0.82 c -2,-2.14 -7.16,-14.04 -6.78,-15.62 c 0.07,-0.31 0.39,-0.68 0.7,-0.81 c 0.3,-0.14 3.42,-0.33 6.92,-0.42 c 8.95,-0.26 39.58,-0.1 41.12,0.21 z m 239.96,0.19 c 0.6,0.5 0.51,1.21 -0.5,4.21 c -1.16,3.45 -5.33,11.84 -6.24,12.55 c -0.88,0.69 -2.9,0.7 -5.06,0.03 c -0.88,-0.28 -1.9,-0.5 -2.27,-0.5 c -0.39,0 -1.19,-0.17 -1.79,-0.39 c -0.61,-0.23 -1.6,-0.49 -2.23,-0.6 c -0.61,-0.11 -1.91,-0.4 -2.88,-0.64 c -0.96,-0.24 -2.65,-0.66 -3.75,-0.93 c -1.1,-0.28 -2.79,-0.7 -3.75,-0.95 c -1.89,-0.5 -3.54,-0.89 -5.5,-1.29 c -0.69,-0.15 -2.09,-0.46 -3.12,-0.72 c -1.02,-0.25 -2.44,-0.56 -3.12,-0.7 c -0.69,-0.14 -2.15,-0.47 -3.25,-0.74 c -2.48,-0.6 -3.95,-0.95 -5.25,-1.25 c -1.77,-0.41 -3.46,-0.84 -5.25,-1.31 c -0.96,-0.26 -2.2,-0.53 -2.75,-0.6 c -1.11,-0.14 -1.94,-0.91 -1.7,-1.59 c 0.55,-1.56 4.74,-3.9 7.75,-4.34 c 3.04,-0.44 10.84,-0.59 30.73,-0.59 c 16.18,0 19.6,0.06 19.94,0.34 z m -224.26,12.28 c 0.6,0.71 1.93,4.19 1.93,5.05 c 0,1.09 -0.8,1.51 -9.75,5.22 c -1.57,0.65 -3.44,1.43 -4.12,1.73 c -0.69,0.3 -2.31,0.95 -3.62,1.44 c -1.3,0.49 -3.39,1.34 -4.62,1.89 c -3.49,1.55 -9.99,4.39 -12.75,5.56 c -1.38,0.59 -3.36,1.48 -4.41,1.95 c -2.8,1.3 -3.6,1.48 -4.65,1.04 c -2.01,-0.84 -10.55,-10.45 -10.56,-11.89 c 0,-0.82 1.81,-1.98 3.11,-1.98 c 0.31,0 1.27,-0.23 2.14,-0.5 c 0.86,-0.28 1.89,-0.5 2.29,-0.5 c 0.4,0 1.36,-0.23 2.15,-0.5 c 0.78,-0.28 1.82,-0.5 2.33,-0.5 c 0.5,0 1.56,-0.23 2.36,-0.5 c 0.8,-0.28 1.81,-0.5 2.26,-0.5 c 0.44,0 1.5,-0.23 2.36,-0.5 c 0.86,-0.28 1.95,-0.5 2.41,-0.5 c 0.46,0 1.49,-0.23 2.27,-0.5 c 0.78,-0.28 1.66,-0.5 1.95,-0.5 c 0.3,0 1.19,-0.23 1.99,-0.5 c 0.8,-0.28 1.79,-0.5 2.21,-0.5 c 0.41,0 1.49,-0.21 2.4,-0.49 c 0.9,-0.26 2.54,-0.7 3.64,-0.96 c 1.1,-0.28 2.51,-0.62 3.12,-0.78 c 0.62,-0.16 1.75,-0.4 2.5,-0.54 c 0.76,-0.15 2.34,-0.49 3.5,-0.76 c 1.18,-0.26 2.52,-0.49 3,-0.5 c 0.49,-0.01 1.27,-0.16 1.75,-0.35 c 1.43,-0.55 2.14,-0.46 2.83,0.36 z m 163.57,-0.36 c 0.68,0.2 1.6,0.38 2.08,0.38 c 0.46,0 1.7,0.21 2.75,0.47 c 1.04,0.26 2.49,0.6 3.21,0.75 c 3.16,0.65 4.05,0.85 5.94,1.32 c 1.1,0.26 2.74,0.69 3.62,0.94 c 0.9,0.25 2.25,0.57 3,0.72 c 0.76,0.15 1.89,0.4 2.5,0.56 c 3.88,0.97 6.55,1.6 8.62,2.01 c 0.69,0.14 1.99,0.47 2.88,0.74 c 0.9,0.26 1.98,0.47 2.4,0.47 c 0.42,0 1.43,0.23 2.23,0.5 c 0.8,0.28 1.75,0.5 2.12,0.5 c 0.38,0 1.32,0.23 2.12,0.5 c 0.8,0.28 1.8,0.5 2.23,0.5 c 1.05,0.01 2.8,0.84 3.14,1.49 c 0.38,0.7 0.17,1.26 -0.95,2.7 c -0.53,0.65 -1.24,1.62 -1.6,2.16 c -1,1.48 -4.08,4.79 -5.74,6.17 c -2.06,1.71 -2.4,1.68 -7.89,-0.69 c -2.44,-1.05 -5.45,-2.33 -6.69,-2.85 c -1.24,-0.51 -4.05,-1.75 -6.25,-2.74 c -2.2,-0.99 -5.62,-2.45 -7.62,-3.25 c -3.74,-1.5 -6.89,-2.81 -10.38,-4.33 c -1.1,-0.47 -2.76,-1.18 -3.7,-1.56 c -2.23,-0.91 -3.02,-1.65 -2.84,-2.61 c 0.28,-1.4 2.01,-4.61 2.66,-4.94 c 0.78,-0.39 0.69,-0.39 2.15,0.06 z m -231.09,0.62 c 0.35,0.28 1.16,1.51 1.8,2.75 c 1.31,2.55 1.41,3.5 0.39,3.79 c -0.34,0.1 -1.41,0.41 -2.38,0.7 c -0.96,0.29 -2.2,0.53 -2.75,0.53 c -0.55,0 -1.71,0.21 -2.59,0.49 c -0.88,0.28 -2,0.5 -2.52,0.5 c -0.51,0 -1.59,0.23 -2.39,0.5 c -0.8,0.28 -1.81,0.5 -2.25,0.5 c -0.44,0 -1.45,0.23 -2.25,0.5 c -0.8,0.28 -1.86,0.5 -2.35,0.5 c -0.5,0 -1.61,0.23 -2.49,0.5 c -0.88,0.28 -1.94,0.5 -2.38,0.5 c -0.44,0 -1.5,0.23 -2.38,0.5 c -0.88,0.28 -2.16,0.5 -2.88,0.5 c -0.71,0 -2.08,0.23 -3.04,0.5 c -0.96,0.28 -2.21,0.5 -2.79,0.5 c -0.57,0 -1.75,0.23 -2.62,0.5 c -0.88,0.28 -1.94,0.5 -2.38,0.5 c -0.44,0 -1.5,0.23 -2.38,0.5 c -0.88,0.28 -2.21,0.5 -2.96,0.5 c -0.76,0 -2.16,0.23 -3.12,0.5 c -0.97,0.28 -2.51,0.5 -3.5,0.51 c -0.96,0 -2.7,0.23 -3.88,0.49 c -1.79,0.41 -3.09,0.49 -8.14,0.49 c -5.21,0.01 -6.28,-0.05 -7.88,-0.49 c -1.02,-0.26 -2.23,-0.49 -2.67,-0.5 c -0.93,0 -4.56,-0.91 -7.31,-1.84 c -4.26,-1.43 -6.89,-2.7 -9.71,-4.7 c -1.56,-1.11 -2.04,-1.81 -1.56,-2.29 c 0.15,-0.15 2.12,-0.35 4.67,-0.46 c 2.41,-0.1 5.94,-0.31 7.81,-0.45 c 1.88,-0.15 6.4,-0.26 10.05,-0.26 c 5.83,0 6.88,-0.06 8.5,-0.5 c 1.45,-0.38 2.69,-0.49 5.61,-0.5 c 2.99,0 4.11,-0.1 5.5,-0.5 c 1.14,-0.33 2.5,-0.5 3.88,-0.5 c 1.38,0 2.74,-0.17 3.88,-0.5 c 1.2,-0.34 2.5,-0.5 4.12,-0.5 c 1.62,0 2.92,-0.16 4.12,-0.5 c 1.18,-0.34 2.5,-0.5 4.04,-0.5 c 1.59,0 2.77,-0.15 3.88,-0.5 c 0.97,-0.3 2.31,-0.5 3.46,-0.5 c 1.04,0 2.71,-0.23 3.75,-0.5 c 1.09,-0.29 2.71,-0.5 3.88,-0.5 c 1.1,0 2.79,-0.19 3.75,-0.4 c 1.48,-0.33 4.96,-0.65 8.9,-0.81 c 0.57,-0.03 1.14,0.15 1.54,0.46 z m 303.94,0.12 c 0.9,0.21 3.04,0.49 4.75,0.61 c 1.73,0.14 3.75,0.42 4.5,0.62 c 0.81,0.23 2.45,0.39 4,0.39 c 1.75,0 3.29,0.17 4.62,0.5 c 1.26,0.31 2.88,0.5 4.38,0.5 c 1.55,0.01 3.02,0.19 4.24,0.5 c 1.14,0.31 2.67,0.5 4,0.5 c 1.31,0.01 2.85,0.2 4,0.5 c 1.29,0.35 2.66,0.5 4.5,0.5 c 1.89,0 3.14,0.14 4.39,0.5 c 1.36,0.39 2.5,0.5 5.12,0.5 c 2.51,0 3.89,0.14 5.38,0.5 c 1.7,0.42 2.88,0.5 7.88,0.5 c 4.56,0 6.61,0.11 9.21,0.5 c 2.21,0.34 4.61,0.5 7.16,0.5 c 5.38,0 6.09,0.38 4.06,2.12 c -1.8,1.55 -4.4,2.92 -8.4,4.42 c -2.1,0.8 -3.98,1.45 -4.15,1.45 c -0.17,0 -1.02,0.23 -1.89,0.5 c -0.86,0.28 -2.09,0.5 -2.73,0.5 c -0.62,0.01 -1.99,0.24 -3.01,0.5 c -2.69,0.72 -10.06,0.72 -13.06,0 c -1.15,-0.28 -2.96,-0.5 -4.08,-0.5 c -1.1,-0.01 -2.95,-0.24 -4.12,-0.5 c -1.16,-0.26 -2.69,-0.49 -3.38,-0.49 c -0.69,-0.01 -2.04,-0.24 -3,-0.51 c -0.96,-0.28 -2.2,-0.5 -2.75,-0.5 c -0.55,-0.01 -1.84,-0.23 -2.88,-0.5 c -1.02,-0.28 -2.27,-0.49 -2.75,-0.5 c -0.49,0 -1.66,-0.23 -2.62,-0.5 c -0.96,-0.28 -2.31,-0.5 -3,-0.5 c -0.69,0 -1.96,-0.23 -2.84,-0.5 c -0.88,-0.28 -2,-0.5 -2.5,-0.5 c -0.5,0 -1.7,-0.23 -2.66,-0.5 c -0.96,-0.28 -2.09,-0.5 -2.5,-0.5 c -0.41,0 -1.54,-0.23 -2.5,-0.5 c -0.96,-0.28 -2.14,-0.5 -2.62,-0.5 c -0.47,0 -1.59,-0.23 -2.46,-0.5 c -0.88,-0.28 -2.05,-0.5 -2.62,-0.5 c -0.57,0 -1.75,-0.23 -2.62,-0.5 c -0.88,-0.28 -2.01,-0.5 -2.52,-0.5 c -0.53,0 -1.65,-0.23 -2.51,-0.5 c -0.86,-0.28 -1.81,-0.5 -2.1,-0.5 c -0.76,0 -1.65,-0.69 -1.65,-1.27 c 0,-0.26 0.44,-1.35 0.97,-2.41 c 0.94,-1.86 1.73,-2.85 2.52,-3.14 c 0.81,-0.3 6.67,-0.15 8.25,0.2 z m -231.43,11.66 c 0.3,0.16 0.69,0.47 0.85,0.69 c 0.57,0.74 2.33,4.22 2.33,4.61 c 0,0.86 -0.68,1.76 -1.99,2.65 c -0.76,0.51 -3.52,2.38 -6.14,4.15 c -8.81,5.97 -10.74,7.24 -14.75,9.72 c -5.04,3.12 -6.5,3.89 -7.46,3.89 c -1.76,0 -12.91,-7.33 -12.91,-8.47 c 0,-0.69 0.44,-0.95 4.06,-2.52 c 1.82,-0.79 5.25,-2.35 7.62,-3.48 c 4.3,-2.02 5.94,-2.74 8.04,-3.45 c 0.61,-0.2 3.09,-1.23 5.5,-2.26 c 5.28,-2.27 13.82,-5.78 14.1,-5.8 c 0.11,-0.01 0.45,0.11 0.75,0.28 z m 155.49,1.06 c 1.82,0.74 5.35,2.25 7.83,3.35 c 2.49,1.1 5.64,2.42 7,2.94 c 1.38,0.51 3.11,1.24 3.86,1.61 c 0.76,0.38 2.45,1.11 3.75,1.62 c 1.31,0.51 3.67,1.59 5.25,2.38 c 1.59,0.79 3.73,1.8 4.75,2.24 c 2.41,1.05 2.92,1.52 2.61,2.42 c -0.35,1 -6.39,5.35 -9.8,7.05 c -2.86,1.45 -3.56,1.41 -6.3,-0.3 c -7.19,-4.5 -12.01,-7.61 -16.7,-10.79 c -9.16,-6.19 -10.05,-6.84 -10.21,-7.54 c -0.12,-0.47 0.14,-1.21 1.02,-2.92 c 1.44,-2.77 1.99,-3.41 2.92,-3.41 c 0.39,0 2.2,0.6 4.01,1.35 z m -146.4,12.09 c 2.54,2.89 2.84,3.33 2.84,4.05 c 0,0.91 -1.41,2.74 -5.46,7.01 c -1.75,1.85 -3.56,3.92 -4.03,4.6 c -1.11,1.62 -4.56,5.01 -5.51,5.4 c -0.6,0.25 -1.09,0.25 -2.31,0.01 c -2.54,-0.47 -10.9,-3.21 -12.75,-4.17 c -0.95,-0.49 -0.91,-1.36 0.12,-2.2 c 0.45,-0.36 1.66,-1.2 2.69,-1.86 c 8.29,-5.29 20.04,-13.05 21.07,-13.93 c 1.15,-0.96 1.69,-0.79 3.34,1.09 z m 136.31,-0.51 c 0.64,0.36 4.75,3.04 9.15,5.95 c 4.4,2.9 9.22,6.06 10.74,7.01 c 1.5,0.95 3.11,2.1 3.58,2.54 c 0.74,0.69 0.81,0.86 0.56,1.34 c -0.39,0.71 -2.56,1.68 -6.9,3.06 c -5.09,1.61 -7.38,2.08 -8.34,1.68 c -1.02,-0.42 -12.49,-12.12 -14.04,-14.32 c -0.7,-1.01 -1.23,-2.02 -1.23,-2.4 c 0,-0.42 0.47,-1.21 1.38,-2.27 c 3.17,-3.75 3.14,-3.73 5.1,-2.58 z m 64.95,2.05 c 9.36,3.09 16.18,5.28 16.48,5.28 c 0.19,0 0.81,0.15 1.4,0.35 c 2.76,0.89 8.3,2.44 10.2,2.86 c 2.14,0.49 4.38,1.07 5.45,1.43 c 0.59,0.2 1.5,0.36 2.02,0.36 c 0.53,0 1.66,0.23 2.52,0.5 c 0.86,0.28 2.04,0.5 2.62,0.5 c 0.59,0 1.76,0.23 2.62,0.5 c 0.86,0.28 1.91,0.5 2.35,0.5 c 0.42,0 1.49,0.23 2.36,0.5 c 0.88,0.28 2.12,0.5 2.77,0.5 c 0.66,0 1.9,0.23 2.76,0.5 c 0.96,0.31 2.25,0.5 3.35,0.5 c 1.02,0 2.51,0.21 3.52,0.5 c 0.96,0.28 2.48,0.51 3.38,0.53 c 3.59,0.05 3.86,0.8 0.88,2.39 c -2.83,1.51 -9.29,3.58 -11.2,3.59 c -0.53,0 -1.76,0.2 -2.75,0.44 c -2.44,0.59 -9.57,0.59 -12.8,-0.01 c -1.24,-0.24 -2.69,-0.42 -3.23,-0.42 c -1.16,0 -6.75,-1.21 -10.9,-2.38 c -6.34,-1.77 -9.68,-2.89 -16.5,-5.55 c -6.97,-2.71 -16.41,-6.95 -17.31,-7.75 c -0.75,-0.69 -0.5,-1.39 1.11,-3.17 c 1.95,-2.16 3.83,-3.65 4.59,-3.65 c 0.33,0 2.26,0.55 4.29,1.23 z m -264.85,-0.4 c 0.84,0.36 4.74,3.83 5.19,4.6 c 0.25,0.45 0.25,0.65 -0.04,1.09 c -0.53,0.78 -10.14,5.14 -17.35,7.86 c -4.91,1.86 -8.1,2.91 -13.62,4.5 c -1.3,0.38 -3.1,0.89 -3.98,1.15 c -0.89,0.26 -1.75,0.47 -1.91,0.47 c -0.16,0 -1,0.23 -1.86,0.5 c -0.86,0.28 -1.91,0.5 -2.35,0.51 c -0.42,0 -1.23,0.17 -1.77,0.39 c -2.12,0.81 -13.46,1.26 -19.12,0.75 c -6.24,-0.55 -16.57,-4.39 -15.31,-5.67 c 0.2,-0.21 1.5,-0.39 3.75,-0.5 c 1.98,-0.1 3.96,-0.35 4.66,-0.57 c 0.68,-0.23 1.99,-0.4 2.91,-0.4 c 0.99,0 2.35,-0.21 3.27,-0.5 c 0.88,-0.28 1.99,-0.5 2.49,-0.5 c 0.49,0 1.55,-0.23 2.35,-0.5 c 0.8,-0.28 1.82,-0.5 2.26,-0.5 c 0.45,0 1.52,-0.23 2.4,-0.5 c 0.88,-0.28 1.89,-0.5 2.25,-0.5 c 0.36,0 1.38,-0.23 2.25,-0.5 c 0.88,-0.28 1.88,-0.5 2.24,-0.5 c 0.35,0 1.36,-0.21 2.25,-0.46 c 0.88,-0.26 2.16,-0.61 2.85,-0.79 c 0.69,-0.17 2.04,-0.54 3,-0.81 c 0.96,-0.26 2.6,-0.68 3.62,-0.93 c 1.04,-0.25 3,-0.75 4.38,-1.14 c 1.38,-0.38 2.79,-0.74 3.12,-0.8 c 0.35,-0.06 1.3,-0.33 2.12,-0.56 c 0.82,-0.25 2.4,-0.7 3.5,-1.01 c 2.38,-0.66 4.92,-1.4 7,-2.01 c 1.89,-0.56 7.41,-2.25 7.75,-2.36 c 0.47,-0.16 1,-0.1 1.7,0.2 z m 73.56,8.71 c 0.68,0.42 1.69,1.15 2.25,1.61 c 0.55,0.45 1.96,1.44 3.12,2.19 c 2.94,1.9 3.99,2.85 3.99,3.56 c 0,1.45 -3.84,3.88 -7.9,4.99 c -2.06,0.56 -2.64,0.61 -7.97,0.61 c -3.16,0 -6,-0.07 -6.3,-0.15 c -0.72,-0.2 -0.96,-0.99 -0.5,-1.68 c 0.21,-0.3 1.49,-1.74 2.84,-3.17 c 1.36,-1.45 2.74,-3.02 3.08,-3.5 c 1.91,-2.74 4.6,-5.25 5.62,-5.25 c 0.3,0 1.1,0.35 1.77,0.79 z m 115.25,-0.33 c 0.89,0.55 4.6,4.51 6.16,6.59 c 0.59,0.78 1.89,2.33 2.89,3.44 c 1,1.11 1.81,2.1 1.81,2.2 c 0,0.1 -0.11,0.35 -0.25,0.56 c -0.38,0.6 -11.74,0.69 -13.7,0.11 c -0.79,-0.23 -2.01,-0.57 -2.74,-0.76 c -3.26,-0.86 -6.56,-2.99 -6.56,-4.25 c 0,-0.81 0.4,-1.15 4.22,-3.6 c 1.82,-1.18 3.96,-2.64 4.74,-3.27 c 2,-1.62 2.27,-1.71 3.42,-1.01 z m -156.38,12.43 c 3.79,1.57 6.22,2.51 9.05,3.5 c 3.12,1.09 3.14,1.44 0.12,4.06 c -7.14,6.19 -19.44,12.16 -30.44,14.78 c -3.96,0.94 -19.3,0.89 -23.12,-0.07 c -3.01,-0.76 -3.7,-1.01 -3.98,-1.46 c -0.2,-0.33 -0.17,-0.53 0.11,-0.81 c 0.21,-0.21 2.75,-1.27 5.62,-2.36 c 8.57,-3.25 14.39,-5.86 19.34,-8.72 c 1.88,-1.09 4.81,-2.74 6.53,-3.67 c 1.73,-0.94 4.47,-2.49 6.12,-3.44 c 5.21,-3.04 5.47,-3.16 6.39,-3.17 c 0.53,0 2.29,0.57 4.25,1.39 z m 200.99,-0.84 c 0.49,0.29 2.51,1.46 4.5,2.6 c 2,1.14 4.64,2.67 5.88,3.41 c 7.81,4.71 19.5,10.19 28.48,13.34 c 1.1,0.39 2.27,0.96 2.62,1.27 c 0.65,0.57 0.65,0.57 -0.04,1.19 c -0.38,0.34 -1.11,0.69 -1.62,0.78 c -0.51,0.09 -1.65,0.38 -2.52,0.64 c -1.43,0.42 -2.45,0.47 -9.88,0.47 c -7.42,-0.01 -8.49,-0.06 -10.16,-0.5 c -1.02,-0.28 -2.1,-0.49 -2.38,-0.49 c -0.62,0 -2.99,-0.72 -7.5,-2.26 c -8.55,-2.94 -14.94,-6.24 -21.12,-10.9 c -3.05,-2.31 -3.56,-2.85 -3.46,-3.76 c 0.09,-0.66 0.28,-0.78 2.96,-1.74 c 3.66,-1.3 7.64,-2.84 9.88,-3.81 c 2.08,-0.91 3.19,-0.97 4.38,-0.24 z m -156.75,28.2 c 0.86,0.28 1.8,0.5 2.08,0.5 c 1.75,0 7.51,2.64 10.3,4.7 c 4.17,3.1 11.38,11.76 11.38,13.7 c 0,1.34 -1.06,2.04 -4.25,2.8 c -3.1,0.75 -3.92,0.84 -6,0.57 c -7.97,-0.97 -10.4,-1.74 -15.4,-4.8 c -4.42,-2.73 -5.14,-2.96 -8.65,-2.98 c -3.5,0 -4.72,0.38 -7.65,2.34 c -2.96,1.99 -4.92,5.05 -6.01,9.4 c -0.66,2.61 -0.66,3.19 -0.03,6.31 c 0.79,3.89 3.4,8.61 6.28,11.35 c 2.36,2.25 7.26,5.58 10.96,7.45 c 3.77,1.91 10.94,4.97 14,5.97 c 4.62,1.51 6.86,2.17 7.36,2.17 c 0.26,0 1.21,0.23 2.12,0.49 c 0.9,0.26 2.54,0.72 3.64,1.01 c 2.27,0.59 5.01,1.35 7.35,2.02 c 0.89,0.26 1.84,0.47 2.11,0.47 c 0.28,0 1.24,0.21 2.15,0.47 c 2.4,0.7 4.96,1.31 6.39,1.52 c 0.7,0.1 1.8,0.38 2.45,0.6 c 0.66,0.21 1.56,0.4 2.02,0.4 c 0.45,0 1.48,0.23 2.27,0.5 c 0.8,0.28 1.7,0.5 1.99,0.5 c 0.3,0 1.21,0.21 2.02,0.47 c 0.82,0.25 2.05,0.57 2.74,0.72 c 4.46,0.94 8.62,2.08 17.62,4.8 c 10.2,3.1 17.69,6.58 25.54,11.86 c 1.02,0.7 3.66,3.05 6,5.38 c 3.3,3.29 4.53,4.7 5.96,6.89 c 2.89,4.41 5.74,10.8 6.26,14.09 c 0.14,0.81 0.41,1.95 0.61,2.54 c 0.29,0.81 0.38,2.29 0.38,6.26 c 0,4.49 -0.06,5.41 -0.5,6.78 c -0.28,0.88 -0.5,1.85 -0.5,2.17 c 0,1.11 -1.52,5.17 -3.26,8.69 c -1.59,3.21 -2.67,4.88 -5.49,8.47 c -1.68,2.14 -6.25,6.5 -9.12,8.72 c -4.64,3.58 -13.61,8.9 -15.01,8.9 c -0.62,0 -15,-7.04 -15.6,-7.64 c -0.33,-0.33 -0.31,-0.42 0.12,-0.85 c 0.26,-0.28 1.95,-1.15 3.74,-1.96 c 4.56,-2.06 10.04,-5.04 12.85,-6.97 c 2.95,-2.04 8.21,-7.12 9.65,-9.32 c 2.31,-3.54 4.12,-8.09 4.12,-10.36 c 0,-0.69 0.17,-1.89 0.38,-2.64 c 0.2,-0.76 0.38,-2 0.38,-2.75 c 0,-0.76 -0.17,-2 -0.38,-2.75 c -0.2,-0.76 -0.38,-1.86 -0.38,-2.45 c 0,-1.29 -1.2,-4.97 -2.4,-7.42 c -0.46,-0.96 -1.86,-3.1 -3.09,-4.75 c -1.89,-2.54 -2.69,-3.36 -5.17,-5.36 c -3.4,-2.7 -7.7,-5.56 -10.51,-6.97 c -4.05,-2.02 -13.81,-5.45 -19.07,-6.67 c -1.85,-0.44 -4.62,-1.18 -7.5,-2 c -1.3,-0.38 -2.99,-0.76 -3.75,-0.86 c -0.75,-0.1 -1.91,-0.36 -2.58,-0.59 c -0.65,-0.23 -1.45,-0.41 -1.77,-0.41 c -0.31,0 -1.23,-0.23 -2.02,-0.5 c -0.8,-0.28 -1.74,-0.5 -2.09,-0.5 c -0.34,0 -1.36,-0.21 -2.27,-0.49 c -2.45,-0.71 -6.81,-1.86 -8.76,-2.3 c -0.61,-0.14 -1.74,-0.42 -2.5,-0.64 c -0.75,-0.21 -1.99,-0.54 -2.75,-0.71 c -0.75,-0.17 -2.27,-0.56 -3.38,-0.86 c -1.1,-0.29 -2.56,-0.68 -3.25,-0.86 c -0.69,-0.17 -1.86,-0.51 -2.62,-0.75 c -0.75,-0.24 -2.16,-0.66 -3.12,-0.95 c -4.34,-1.29 -10.35,-3.39 -14.55,-5.08 c -5.16,-2.09 -5.85,-2.41 -8.82,-4.17 c -9.6,-5.7 -16.12,-11.95 -19.93,-19.07 c -1.34,-2.51 -3.08,-7.33 -3.08,-8.51 c 0,-0.45 -0.23,-1.75 -0.5,-2.9 c -0.64,-2.64 -0.64,-4.86 0,-7.08 c 0.28,-0.96 0.5,-2.09 0.5,-2.51 c 0,-1.8 2.25,-7.12 4.31,-10.24 c 2.36,-3.55 7.05,-7.55 11.35,-9.71 c 2.36,-1.19 7.74,-3.15 8.68,-3.17 c 0.3,-0.01 1.16,-0.23 1.91,-0.49 c 1.16,-0.4 2.19,-0.47 6.78,-0.49 c 4.75,-0.01 5.6,0.05 6.97,0.49 z m 53.31,91.53 c 4.29,1.34 4.34,1.39 4.58,4.88 c 0.1,1.5 0.1,4.08 0,5.72 c -0.26,4.65 -0.59,15.25 -0.86,29.5 c -0.25,12.44 -0.68,19.16 -1.31,20.85 c -0.2,0.53 -0.34,0.57 -1.36,0.46 c -0.62,-0.07 -1.77,-0.45 -2.54,-0.85 c -2.24,-1.15 -2.35,-1.5 -2.59,-8.55 c -0.11,-3.25 -0.2,-8.56 -0.21,-11.8 c 0,-3.25 -0.21,-9.04 -0.45,-12.88 c -0.28,-4.64 -0.42,-10.46 -0.44,-17.32 c 0,-12.75 -0.49,-11.8 5.19,-10.01 z m -12.72,5.04 c 0.26,0.4 0.4,1.86 0.5,5.19 c 0.09,2.54 0.31,6.09 0.53,7.88 c 0.26,2.3 0.39,5.97 0.4,12.62 c 0.01,5.15 0.11,11 0.25,13 c 0.12,1.99 0.3,5.5 0.4,7.8 c 0.17,4.41 0.07,4.95 -0.94,4.95 c -0.82,0 -10.74,-5.15 -13.91,-7.22 c -3.42,-2.24 -5.84,-4.53 -7.51,-7.11 c -1.23,-1.89 -2.91,-5.38 -3.19,-6.54 c -0.09,-0.41 -0.38,-1.46 -0.64,-2.34 c -0.76,-2.56 -0.65,-4.99 0.4,-8.16 c 0.49,-1.46 1.26,-3.41 1.74,-4.34 c 1.12,-2.25 3.54,-5.46 5.04,-6.74 c 4.66,-3.91 6.06,-4.86 10.66,-7.19 c 2.59,-1.3 4.97,-2.36 5.31,-2.36 c 0.36,0 0.75,0.23 0.96,0.56 z m 28.46,0.45 c 6.06,2.66 10.65,5.69 14.21,9.4 c 3.36,3.49 5.22,7.39 5.99,12.5 c 0.42,2.9 0.44,3.29 0.07,5.54 c -0.47,3 -1.26,5.3 -2.75,8.04 c -1.5,2.75 -5.88,7.22 -9.29,9.49 c -2.27,1.52 -12.5,6.78 -13.16,6.78 c -0.19,0 -0.53,-0.25 -0.74,-0.55 c -0.5,-0.71 -0.49,-3.15 0.01,-9.82 c 0.23,-2.88 0.47,-11.21 0.61,-19.62 c 0.24,-15.88 0.47,-21.31 0.95,-22.19 c 0.45,-0.82 1.41,-0.71 4.09,0.45 z m -15.36,85.24 c 0.46,0.28 0.94,0.81 1.09,1.19 c 0.17,0.46 0.23,6.31 0.15,18.06 c -0.09,14 -0.19,17.94 -0.51,20.25 c -0.25,1.86 -0.41,4.95 -0.42,8.75 c -0.03,3.23 -0.11,6.15 -0.21,6.5 c -0.21,0.78 -1.14,0.97 -1.48,0.33 c -0.12,-0.25 -0.3,-2.76 -0.39,-5.58 c -0.07,-2.83 -0.31,-6.59 -0.53,-8.38 c -0.31,-2.64 -0.39,-6.79 -0.39,-21.94 c 0,-18.35 0.01,-18.7 0.5,-19.19 c 0.62,-0.62 1.16,-0.62 2.19,0 z m -10.12,4.6 c 0.25,0.25 0.41,1.32 0.54,3.56 c 0.09,1.77 0.33,4.67 0.53,6.46 c 0.45,4 0.55,34.34 0.11,35.14 c -0.56,1.05 -1.55,0.6 -5.79,-2.69 c -2.76,-2.12 -3.52,-2.91 -6.03,-6.2 c -2.3,-3.02 -4.05,-6.01 -4.59,-7.88 c -0.23,-0.76 -0.61,-2.04 -0.88,-2.86 c -1.56,-4.99 0.69,-12.19 5.46,-17.44 c 2.61,-2.88 7.35,-6.96 9.45,-8.15 c 0.65,-0.38 0.78,-0.36 1.19,0.05 z m 21.89,1.32 c 5.54,3.12 9.75,7.99 11.99,13.82 c 0.57,1.49 0.62,1.98 0.65,5.88 c 0.03,4.92 -0.15,5.7 -2.23,9.75 c -1.79,3.5 -3.86,6.39 -6.38,8.89 c -2.59,2.58 -7.28,6.24 -7.97,6.24 c -0.6,0 -1.12,-0.89 -0.85,-1.46 c 0.1,-0.23 0.26,-9.64 0.35,-20.91 c 0.16,-20.35 0.25,-22.11 1.02,-23.05 c 0.47,-0.56 1.27,-0.36 3.41,0.85 z m -24.27,69.5 c 1,0.47 2.31,1.2 2.94,1.6 c 1.68,1.05 1.56,1.49 -0.93,3.61 c -1.14,0.97 -2.45,2.04 -2.94,2.36 c -2.41,1.65 -5.94,5.33 -8.7,9.07 c -2.34,3.19 -5.53,9.91 -5.56,11.74 c 0,0.31 -0.19,1.01 -0.39,1.56 c -0.23,0.57 -0.47,2.46 -0.6,4.46 c -0.11,1.91 -0.33,3.59 -0.47,3.74 c -0.46,0.46 -1.05,-0.38 -1.4,-1.99 c -0.17,-0.8 -0.5,-2.14 -0.72,-2.95 c -0.3,-1.11 -0.4,-2.62 -0.4,-5.94 c 0,-3.95 0.07,-4.71 0.64,-6.89 c 0.34,-1.34 0.85,-3.02 1.11,-3.74 c 0.9,-2.41 3.48,-7.28 4.56,-8.61 c 0.6,-0.74 1.46,-1.89 1.93,-2.58 c 1.27,-1.85 4.91,-5.29 6.36,-6.01 c 1.51,-0.76 2.01,-0.7 4.58,0.55 z"/>
    <path d="M 750.55,270.51 c -1.19,0.61 -2.3,2.23 -2.3,3.33 c 0,2.75 3.17,5.34 6.25,5.11 c 1.79,-0.12 2.81,-0.84 3.39,-2.31 c 0.55,-1.44 0.34,-2.51 -0.74,-3.92 c -1.89,-2.49 -4.4,-3.31 -6.6,-2.2 z"/>
    <path d="M 845.61,270.39 c -0.42,0.21 -1.38,0.99 -2.11,1.74 c -1.26,1.29 -1.35,1.44 -1.44,2.8 c -0.19,2.91 1.2,4.15 4.46,4.03 c 1.64,-0.06 2.01,-0.17 2.84,-0.8 c 1.32,-1.01 2.39,-2.77 2.39,-3.96 c 0,-2.95 -3.49,-5.11 -6.14,-3.8 z"/>
  </g>
  <g fill="#c08396">
    <path d="M 1042.38,639.38 c -0.55,0.2 -1.61,0.49 -2.35,0.65 c -1.48,0.3 -4.84,1.76 -8,3.46 c -1.65,0.89 -2.58,1.66 -5.33,4.47 c -2.58,2.65 -3.5,3.77 -4.11,5.04 c -0.99,2.04 -1.59,3.81 -1.59,4.7 c 0,0.38 -0.23,1.46 -0.5,2.42 c -0.69,2.4 -0.62,4.14 0.28,7.83 c 1.04,4.28 2.96,8.05 5.41,10.62 c 1.65,1.73 7.35,5.67 10.51,7.28 c 1.44,0.72 8.5,3.34 10.93,4.04 c 4.31,1.24 11.56,4.42 14.75,6.49 c 1.56,1 3.74,3.17 4.51,4.5 c 1.34,2.31 1.93,4.36 2.05,7.28 c 0.11,2.46 0.05,3.01 -0.54,5.05 c -0.8,2.79 -1.95,4.81 -3.65,6.4 c -1.75,1.64 -6.76,4.05 -9.15,4.4 c -0.95,0.14 -2.17,0.41 -2.73,0.61 c -1.6,0.59 -6.67,0.51 -8.5,-0.11 c -0.8,-0.28 -1.79,-0.5 -2.2,-0.5 c -1.09,0 -6.71,-1.82 -9.68,-3.14 c -3.21,-1.43 -6.03,-3.23 -8.7,-5.55 c -1.15,-1 -2.29,-1.81 -2.52,-1.81 c -1.24,0 -2.27,3.11 -2.27,6.79 c 0,3.14 0.24,3.6 2.56,5.11 c 5.61,3.65 10.44,5.4 19.56,7.09 c 3.86,0.72 10.86,0.72 13.75,0.01 c 1.1,-0.28 2.46,-0.5 3.02,-0.5 c 0.56,0 1.8,-0.23 2.75,-0.5 c 7.36,-2.15 9.43,-3.27 13.8,-7.59 c 3.96,-3.9 5.62,-6.95 7.03,-12.79 c 0.65,-2.71 0.74,-7.47 0.17,-9.18 c -0.2,-0.59 -0.5,-1.59 -0.65,-2.2 c -0.72,-2.79 -3.21,-6.94 -6.08,-10.15 c -1.14,-1.27 -4.62,-3.81 -7.05,-5.12 c -2.96,-1.61 -8.61,-3.91 -18.12,-7.4 c -3.02,-1.1 -9.28,-4.31 -11.38,-5.83 c -1.6,-1.16 -2.38,-1.93 -3.26,-3.27 c -1.84,-2.76 -2.11,-3.71 -2.11,-7.35 c 0,-4.03 0.51,-5.46 2.89,-8.06 c 2.14,-2.35 3.67,-3.44 6.31,-4.49 c 2.2,-0.88 5.78,-1.46 8.68,-1.41 c 8.36,0.11 13,1.55 20.14,6.26 c 1.32,0.86 2.64,1.57 2.94,1.57 c 0.61,0 1.68,-1.43 1.94,-2.62 c 0.09,-0.41 0.39,-1.45 0.66,-2.3 c 0.7,-2.12 0.5,-3.02 -0.94,-4.29 c -0.61,-0.54 -1.94,-1.39 -2.92,-1.88 c -2.46,-1.21 -7.74,-3.15 -9.3,-3.42 c -0.69,-0.12 -1.81,-0.39 -2.49,-0.6 c -1.74,-0.55 -17.01,-0.55 -18.52,-0.01 z"/>
    <path d="M 525.61,640.23 c -1.1,0.46 -1.2,0.88 -1.43,5.74 c -0.11,2.56 -0.15,6.14 -0.06,7.95 c 0.07,1.8 0.15,19.49 0.14,39.31 c 0,25.5 0.07,36.2 0.28,36.62 c 0.46,1.01 1.19,1.15 6.33,1.15 c 4.39,0 4.89,-0.05 5.42,-0.47 c 0.59,-0.47 0.59,-0.47 0.71,-21 c 0.11,-19.26 0.15,-20.54 0.57,-20.95 c 0.41,-0.42 1.73,-0.45 23.95,-0.45 c 23.52,0 23.52,0 24,0.59 c 0.46,0.57 0.47,1.27 0.47,20.45 c 0,22.05 -0.05,21.41 1.54,21.71 c 0.46,0.09 3.05,0.12 5.76,0.07 c 4.34,-0.06 4.99,-0.12 5.38,-0.53 c 0.42,-0.42 0.45,-2.56 0.42,-44.85 c -0.01,-44.4 -0.01,-44.4 -0.7,-44.99 c -0.66,-0.57 -0.79,-0.59 -5.78,-0.59 c -5.03,0 -5.11,0.01 -5.8,0.6 c -0.7,0.61 -0.7,0.61 -0.82,19.5 c -0.11,17.7 -0.15,18.91 -0.57,19.32 c -0.41,0.42 -1.73,0.45 -23.93,0.45 c -22.21,0 -23.51,-0.03 -23.93,-0.45 c -0.42,-0.41 -0.46,-1.64 -0.57,-19.43 c -0.11,-17.79 -0.15,-19.01 -0.57,-19.43 c -0.39,-0.4 -1.01,-0.46 -5.38,-0.5 c -2.71,-0.04 -5.15,0.04 -5.44,0.15 z"/>
    <path d="M 631.06,640.26 c -0.31,0.12 -0.68,0.51 -0.81,0.88 c -0.16,0.41 -0.25,16.34 -0.25,44.6 c 0,42.91 0.01,43.98 0.47,44.55 c 0.47,0.59 0.47,0.59 30.35,0.65 c 29.15,0.06 29.88,0.06 30.45,-0.41 c 0.57,-0.46 0.6,-0.62 0.6,-3.5 c 0,-2.55 -0.06,-3.08 -0.45,-3.45 c -0.41,-0.42 -1.81,-0.46 -23.95,-0.57 c -23.52,-0.12 -23.52,-0.12 -24,-0.71 c -0.46,-0.57 -0.47,-1.21 -0.47,-16.79 c 0,-15.57 0.01,-16.21 0.47,-16.79 c 0.47,-0.59 0.47,-0.59 18.81,-0.71 c 10.09,-0.07 18.52,-0.21 18.74,-0.33 c 0.7,-0.35 0.97,-1.38 0.97,-3.67 c 0,-2.3 -0.28,-3.33 -0.97,-3.67 c -0.21,-0.11 -8.65,-0.26 -18.74,-0.33 c -18.34,-0.12 -18.34,-0.12 -18.81,-0.71 c -0.45,-0.57 -0.47,-1.19 -0.47,-15.29 c 0,-14.1 0.03,-14.71 0.47,-15.29 c 0.47,-0.59 0.47,-0.59 23,-0.71 c 21.18,-0.11 22.54,-0.15 22.95,-0.57 c 0.39,-0.38 0.45,-0.9 0.45,-3.42 c 0,-2.52 -0.06,-3.05 -0.45,-3.42 c -0.42,-0.42 -1.96,-0.45 -29.12,-0.5 c -16.91,-0.03 -28.91,0.05 -29.24,0.19 z"/>
    <path d="M 717.06,640.26 c -0.31,0.12 -0.69,0.51 -0.81,0.88 c -0.16,0.42 -0.24,15.99 -0.19,44.75 c 0.06,41.95 0.09,44.11 0.51,44.54 c 0.4,0.4 1,0.45 5.92,0.45 c 4.92,0 5.53,-0.05 5.92,-0.45 c 0.42,-0.41 0.46,-1.61 0.57,-18.93 c 0.11,-17.31 0.15,-18.51 0.57,-18.93 c 0.4,-0.41 1.12,-0.46 7.66,-0.53 c 5.78,-0.06 7.4,0 8.07,0.28 c 0.7,0.3 1.71,1.66 6.04,8.07 c 2.85,4.25 5.67,8.4 6.28,9.22 c 0.6,0.82 1.44,2 1.85,2.62 c 0.41,0.61 1.1,1.62 1.52,2.25 c 0.42,0.61 2.31,3.42 4.19,6.25 c 1.88,2.81 4.06,6.11 4.88,7.34 c 1.07,1.61 1.7,2.3 2.33,2.56 c 0.65,0.28 2.26,0.35 7.09,0.35 c 5.34,0 6.3,-0.06 6.64,-0.39 c 0.51,-0.53 0.49,-1.16 -0.09,-1.9 c -0.25,-0.33 -0.9,-1.23 -1.44,-2 c -0.53,-0.78 -2.2,-3.11 -3.71,-5.19 c -1.51,-2.09 -3.25,-4.5 -3.88,-5.38 c -0.61,-0.88 -1.93,-2.7 -2.89,-4.05 c -0.97,-1.36 -2.12,-2.99 -2.55,-3.6 c -0.42,-0.62 -1.74,-2.54 -2.92,-4.25 c -1.19,-1.73 -2.76,-3.98 -3.5,-5 c -0.75,-1.04 -2.08,-2.95 -2.96,-4.25 c -3.04,-4.46 -3.02,-4.54 0.95,-5.89 c 4.16,-1.41 8.11,-3.89 10.03,-6.29 c 0.54,-0.66 1.55,-1.88 2.25,-2.7 c 1.6,-1.86 2.96,-4.53 3.89,-7.6 c 0.69,-2.25 0.71,-2.58 0.71,-7.4 c 0,-4.67 -0.04,-5.16 -0.6,-6.83 c -1.27,-3.74 -2.52,-5.7 -5.64,-8.89 c -3.04,-3.1 -5.1,-4.64 -7.92,-5.88 c -2.4,-1.05 -6.99,-2.54 -7.83,-2.54 c -0.39,0 -1.4,-0.23 -2.26,-0.5 c -1.51,-0.49 -2.23,-0.5 -19.85,-0.49 c -10.35,0.01 -18.52,0.11 -18.84,0.25 z m 37.02,8.59 c 3.55,1.14 5.56,2.31 7.91,4.64 c 2.46,2.44 3.33,3.79 4.26,6.7 c 0.64,2 0.74,2.7 0.74,5.1 c 0,2.7 -0.21,3.95 -1.4,8.12 c -0.39,1.4 -2.31,4.51 -3.52,5.72 c -2.4,2.4 -7.29,4.46 -11.53,4.88 c -1.29,0.12 -2.46,0.31 -2.62,0.41 c -0.16,0.1 -4.29,0.16 -9.16,0.12 c -7.62,-0.04 -8.91,-0.1 -9.25,-0.42 c -0.34,-0.35 -0.4,-2.44 -0.45,-17.51 c -0.05,-11.96 0.01,-17.27 0.2,-17.64 c 0.15,-0.28 0.51,-0.6 0.81,-0.72 c 0.3,-0.12 5.24,-0.23 10.96,-0.24 c 10.41,-0.01 10.41,-0.01 13.05,0.84 z"/>
    <path d="M 815.06,640.26 c -0.74,0.29 -0.96,0.94 -1.14,3.36 c -0.09,1.1 -0.33,2.83 -0.54,3.83 c -0.26,1.26 -0.39,3.23 -0.39,6.25 c 0,3.4 -0.11,5.03 -0.5,7 c -0.39,1.99 -0.5,3.6 -0.5,7.12 c 0,3.69 -0.1,4.92 -0.5,6.55 c -0.38,1.51 -0.5,2.86 -0.5,5.55 c 0,2.51 -0.15,4.28 -0.5,6.08 c -0.33,1.65 -0.5,3.56 -0.5,5.45 c 0,1.68 -0.21,4.26 -0.5,6.05 c -0.33,2.04 -0.5,4.39 -0.5,6.75 c 0,2.59 -0.15,4.36 -0.5,6.2 c -0.36,1.88 -0.5,3.61 -0.51,6.5 c 0,2.98 -0.11,4.44 -0.49,6.05 c -0.29,1.26 -0.49,3.06 -0.49,4.45 c -0.01,2.14 0.04,2.38 0.6,2.94 c 0.59,0.59 0.75,0.61 3.89,0.61 c 1.81,0 3.5,-0.11 3.76,-0.26 c 1.26,-0.68 1.74,-3.44 1.75,-10.19 c 0,-3.73 0.1,-5.11 0.49,-6.8 c 0.39,-1.68 0.49,-3.08 0.49,-6.67 c 0.01,-3.51 0.12,-5.15 0.51,-7.12 c 0.38,-1.96 0.5,-3.6 0.5,-6.86 c 0,-2.86 0.16,-5.51 0.5,-8 c 0.33,-2.44 0.5,-5.14 0.5,-7.85 c 0,-2.3 0.17,-5.41 0.39,-7 c 0.2,-1.57 0.47,-4.25 0.6,-5.96 c 0.24,-3.24 0.45,-3.85 1.15,-3.26 c 0.5,0.41 2.05,3.45 3.55,6.99 c 0.62,1.44 1.77,4.14 2.56,6 c 0.8,1.85 2.26,5.22 3.26,7.5 c 0.99,2.26 2.62,5.97 3.61,8.25 c 2.95,6.71 5.28,11.84 7.62,16.75 c 1.21,2.54 2.71,5.86 3.33,7.38 c 1.69,4.12 2.66,6.33 4.85,11 c 1.1,2.34 2.12,4.56 2.27,4.94 c 0.41,0.97 1.19,1.19 4.39,1.19 c 2.12,0 2.94,-0.09 3.35,-0.39 c 0.66,-0.46 1.81,-2.86 3.85,-7.99 c 0.81,-2.06 2.14,-5.28 2.94,-7.12 c 0.8,-1.86 2.05,-4.79 2.77,-6.5 c 0.72,-1.73 1.82,-4.25 2.44,-5.62 c 0.62,-1.38 1.74,-3.91 2.48,-5.62 c 0.75,-1.73 2.08,-4.65 2.95,-6.5 c 1.69,-3.59 4.5,-9.97 5.39,-12.25 c 0.61,-1.59 3.49,-8.15 5.25,-12 c 0.66,-1.45 1.45,-3.25 1.76,-4 c 0.69,-1.66 1.36,-2.48 1.75,-2.09 c 0.15,0.15 0.38,1.61 0.49,3.24 c 0.12,1.64 0.4,3.86 0.61,4.94 c 0.25,1.26 0.39,3.39 0.4,6 c 0,3.09 0.11,4.54 0.49,6.16 c 0.36,1.59 0.49,3.08 0.49,5.9 c 0.01,2.79 0.14,4.39 0.51,6.12 c 0.38,1.81 0.49,3.33 0.5,6.61 c 0,3.17 0.12,4.96 0.5,6.99 c 0.34,1.82 0.5,3.8 0.5,5.99 c 0,1.94 0.16,4.12 0.4,5.39 c 0.23,1.16 0.47,4.24 0.56,6.8 c 0.23,6.31 -0.36,5.8 6.81,5.9 c 6.62,0.09 6.88,0.03 6.62,-1.91 c -0.09,-0.64 -0.25,-3.08 -0.38,-5.41 c -0.11,-2.34 -0.39,-5.04 -0.61,-6 c -0.26,-1.11 -0.41,-2.94 -0.41,-5 c -0.01,-2.41 -0.14,-3.73 -0.5,-5.11 c -0.39,-1.43 -0.5,-2.67 -0.5,-5.38 c -0.01,-2.3 -0.15,-4.11 -0.41,-5.26 c -0.21,-0.96 -0.47,-3.73 -0.59,-6.12 c -0.11,-2.41 -0.38,-5.28 -0.59,-6.38 c -0.25,-1.26 -0.4,-3.4 -0.4,-5.79 c -0.01,-2.61 -0.16,-4.65 -0.51,-6.62 c -0.29,-1.62 -0.5,-3.98 -0.5,-5.51 c 0,-1.64 -0.19,-3.64 -0.5,-5.2 c -0.36,-1.82 -0.5,-3.55 -0.5,-6.12 c 0,-2.31 -0.14,-4.28 -0.4,-5.54 c -0.23,-1.07 -0.47,-3.45 -0.56,-5.28 c -0.14,-2.67 -0.25,-3.39 -0.61,-3.75 c -0.39,-0.39 -1.04,-0.45 -5.25,-0.51 c -5.59,-0.07 -6.14,0.07 -7.15,1.93 c -0.76,1.39 -4.19,8.76 -5.83,12.53 c -0.68,1.57 -2.06,4.72 -3.08,7 c -1.01,2.26 -2.25,5.14 -2.76,6.38 c -0.5,1.24 -1.26,2.92 -1.68,3.75 c -0.42,0.82 -1.57,3.35 -2.58,5.62 c -0.99,2.26 -2.73,6.2 -3.86,8.75 c -1.12,2.54 -3,6.92 -4.16,9.75 c -1.16,2.81 -2.74,6.47 -3.5,8.12 c -0.76,1.65 -1.6,3.54 -1.86,4.19 c -0.82,2.08 -1.69,3.62 -2.14,3.79 c -0.26,0.1 -0.6,0 -0.88,-0.28 c -0.44,-0.45 -2.8,-5.5 -4.25,-9.07 c -0.41,-1.02 -1.93,-4.3 -3.36,-7.29 c -1.43,-2.98 -2.6,-5.47 -2.6,-5.55 c 0,-0.28 -3.85,-8.94 -6.12,-13.79 c -1.29,-2.75 -2.9,-6.3 -3.58,-7.88 c -2.05,-4.79 -6.99,-15.91 -8.72,-19.62 c -3.09,-6.64 -3.67,-7.74 -4.33,-8.06 c -0.75,-0.36 -9.8,-0.41 -10.69,-0.05 z"/>
    <path d="M 939.83,640.25 c -0.72,0.3 -0.97,0.84 -1.19,2.52 c -0.09,0.76 -0.17,20.56 -0.19,44 c -0.03,33.31 0.04,42.73 0.28,43.17 c 0.16,0.31 0.59,0.68 0.94,0.81 c 0.38,0.15 11.94,0.24 29.82,0.24 c 28.39,0 29.23,-0.01 29.8,-0.47 c 0.56,-0.46 0.59,-0.62 0.59,-3.5 c 0,-2.55 -0.06,-3.08 -0.45,-3.45 c -0.41,-0.42 -1.8,-0.46 -23.57,-0.57 c -23.15,-0.12 -23.15,-0.12 -23.65,-0.74 c -0.49,-0.61 -0.5,-0.93 -0.41,-16.81 c 0.09,-16.19 0.09,-16.19 0.66,-16.75 c 0.56,-0.57 0.56,-0.57 18.55,-0.7 c 16.84,-0.11 18.01,-0.15 18.43,-0.57 c 0.39,-0.38 0.45,-0.9 0.45,-3.42 c 0,-2.52 -0.06,-3.05 -0.45,-3.42 c -0.41,-0.42 -1.6,-0.46 -18.57,-0.57 c -18.15,-0.12 -18.15,-0.12 -18.62,-0.71 c -0.45,-0.56 -0.47,-1.15 -0.45,-14 c 0.01,-7.38 0.1,-14.06 0.2,-14.85 c 0.31,-2.54 -2,-2.3 23.02,-2.44 c 20.68,-0.11 22.01,-0.15 22.43,-0.57 c 0.39,-0.38 0.45,-0.9 0.45,-3.42 c 0,-2.52 -0.06,-3.05 -0.45,-3.42 c -0.42,-0.42 -1.95,-0.45 -28.75,-0.5 c -16.01,-0.03 -28.54,0.05 -28.85,0.17 z"/>
  </g>
  <g fill="#d3c3b7">
    <path d="M 787.85,748.11 c -2.3,1 -2.06,4.12 0.4,5.14 c 0.6,0.25 0.9,0.25 1.5,0 c 2.49,-1.02 2.7,-4.17 0.35,-5.15 c -1.01,-0.42 -1.26,-0.42 -2.25,0.01 z"/>
    <path d="M 566.59,756.35 c -0.94,0.42 -1.12,0.72 -2.5,4.03 c -1.86,4.5 -4.74,10.96 -5.71,12.88 c -1.05,2.06 -3.26,7.33 -3.71,8.84 c -0.26,0.89 -0.24,1 0.34,1.46 c 0.51,0.41 0.9,0.49 2.31,0.4 c 2.06,-0.11 2.34,-0.35 3.77,-3.23 c 1.54,-3.09 1.57,-3.11 7.66,-3.04 c 2.67,0.04 5.25,0.19 5.7,0.34 c 0.74,0.24 0.97,0.57 2.04,2.85 c 1.11,2.36 1.27,2.59 2.14,2.88 c 1.07,0.36 3.19,0.23 3.74,-0.24 c 0.65,-0.54 0.44,-1.65 -0.82,-4.46 c -0.68,-1.49 -1.31,-2.98 -1.41,-3.31 c -0.1,-0.34 -0.97,-2.3 -1.94,-4.36 c -0.96,-2.06 -2.19,-4.8 -2.73,-6.09 c -1.75,-4.15 -3.91,-8.25 -4.61,-8.7 c -0.88,-0.57 -3.24,-0.7 -4.26,-0.24 z m 2.48,8.21 c 0.5,0.38 3.44,6.54 3.44,7.21 c 0,0.97 -1.02,1.27 -4.01,1.19 c -2.44,-0.07 -2.83,-0.15 -3.15,-0.59 c -0.42,-0.6 -0.38,-0.86 0.93,-4.24 c 0.94,-2.41 1.77,-3.89 2.21,-3.89 c 0.1,0 0.36,0.14 0.59,0.31 z"/>
    <path d="M 592.89,756.61 c -2.8,1.18 -5.49,4.46 -5.81,7.12 c -0.19,1.59 0.79,3.77 2.38,5.34 c 1.29,1.26 3.89,2.58 5.6,2.81 c 1.02,0.15 3.8,0.9 5.26,1.43 c 0.97,0.35 2.44,2.05 2.44,2.84 c 0,0.95 -0.74,2.04 -1.7,2.49 c -0.69,0.34 -1.52,0.39 -4.51,0.33 c -3.66,-0.09 -3.66,-0.1 -5.53,-1.02 c -2.23,-1.12 -2.83,-1.16 -3.45,-0.25 c -1.93,2.8 -1.3,3.83 3.44,5.56 c 2.11,0.78 2.12,0.78 6.5,0.7 c 4.14,-0.07 4.45,-0.11 5.8,-0.74 c 1.57,-0.75 3.54,-2.42 4.11,-3.54 c 0.45,-0.88 1.09,-3.23 1.09,-4.01 c 0,-0.31 -0.17,-1.18 -0.4,-1.9 c -0.8,-2.69 -3.89,-5.08 -7.42,-5.72 c -0.79,-0.15 -1.62,-0.38 -1.86,-0.5 c -0.24,-0.12 -1.02,-0.36 -1.74,-0.53 c -3,-0.7 -4.51,-2.49 -3.73,-4.38 c 0.56,-1.34 1.51,-1.64 5.15,-1.64 c 2.65,0 3.19,0.07 4.5,0.62 c 0.81,0.34 1.65,0.62 1.85,0.62 c 0.54,0 1.88,-1.74 2.05,-2.65 c 0.21,-1.18 -0.21,-1.73 -2.09,-2.64 c -1.69,-0.82 -1.69,-0.82 -6.06,-0.9 c -4.17,-0.06 -4.44,-0.04 -5.86,0.55 z"/>
    <path d="M 612.71,756.38 c -1.18,0.64 -1.59,2.85 -0.74,3.91 c 0.45,0.55 0.69,0.6 3.73,0.71 c 2.62,0.1 3.34,0.21 3.74,0.56 c 0.41,0.39 0.53,1.06 0.8,5.17 c 0.19,2.71 0.25,5.7 0.15,6.97 c -0.09,1.24 -0.09,3.74 0.01,5.55 c 0.15,2.91 0.24,3.38 0.74,3.95 c 0.51,0.59 0.75,0.66 2.21,0.66 c 2.7,0 2.5,0.81 2.65,-11.38 c 0.11,-9.62 0.16,-10.53 0.57,-10.93 c 0.36,-0.38 1.02,-0.47 3.8,-0.57 c 3.9,-0.15 4.36,-0.38 4.44,-2.19 c 0.05,-1.31 -0.44,-2.23 -1.39,-2.55 c -0.47,-0.16 -4.29,-0.26 -10.4,-0.25 c -7.9,0 -9.78,0.07 -10.31,0.36 z"/>
    <path d="M 641.88,756.24 c -1.05,0.42 -1.5,1.24 -1.45,2.6 c 0.03,0.71 0.03,3.48 0.03,6.16 c -0.07,19.04 -0.12,17.44 0.62,18.19 c 0.6,0.61 0.88,0.69 2.3,0.69 c 2.36,0 2.48,-0.17 2.62,-4 c 0.11,-2.91 0.16,-3.16 0.75,-3.74 c 0.53,-0.53 0.96,-0.66 2.54,-0.8 c 1.69,-0.14 2.01,-0.1 2.75,0.38 c 0.89,0.56 1.05,0.78 3.66,4.64 c 2.09,3.1 2.58,3.48 4.67,3.6 c 2.66,0.17 3.49,-0.72 2.3,-2.48 c -0.33,-0.46 -1.34,-1.95 -2.26,-3.29 c -2.38,-3.45 -2.38,-3.52 -0.19,-5.7 c 2.54,-2.51 2.77,-3.09 2.77,-6.54 c 0,-2.5 -0.07,-2.99 -0.64,-4.2 c -1.18,-2.51 -2.54,-3.59 -6.39,-5.01 c -2.01,-0.74 -2.01,-0.74 -7.8,-0.72 c -3.19,0.01 -6.03,0.11 -6.3,0.23 z m 12.3,5.03 c 1.62,0.61 3.33,3.05 3.33,4.76 c 0,0.88 -0.59,2.39 -1.2,3.05 c -0.24,0.26 -0.99,0.78 -1.68,1.14 c -1.16,0.61 -1.48,0.66 -4.46,0.66 c -4.28,0 -4.16,0.14 -4.16,-4.8 c 0,-3.77 0.15,-4.45 1.07,-4.83 c 0.79,-0.31 6.25,-0.3 7.1,0.01 z"/>
    <path d="M 678.4,756.7 c -1.59,0.55 -2.34,0.99 -3.88,2.33 c -2.5,2.16 -3.79,3.9 -4.74,6.4 c -0.7,1.82 -0.79,2.35 -0.79,4.67 c 0,2.3 0.09,2.84 0.76,4.61 c 2.02,5.3 6.8,8.99 12.14,9.38 c 3.4,0.24 5.94,-0.15 8.43,-1.3 c 3.67,-1.7 5.62,-3.92 7.16,-8.2 c 0.5,-1.39 0.55,-1.89 0.45,-5 c -0.11,-3.89 -0.4,-4.84 -2.33,-7.84 c -1.59,-2.48 -3.46,-3.9 -6.69,-5.11 c -1.51,-0.57 -2.04,-0.64 -5.11,-0.62 c -3.06,0.01 -3.65,0.09 -5.41,0.69 z m 9.1,5.01 c 1.51,0.78 3.46,2.69 4,3.91 c 0.25,0.55 0.59,1.76 0.78,2.7 c 0.78,4.05 -1.29,8.25 -4.9,9.96 c -1.29,0.61 -1.8,0.71 -3.66,0.71 c -3.67,0 -6.25,-1.4 -7.85,-4.29 c -0.71,-1.3 -0.74,-1.44 -0.74,-4.71 c 0,-3.38 0,-3.38 1.18,-5.17 c 1.94,-2.98 3.71,-3.86 7.58,-3.76 c 2.05,0.05 2.7,0.16 3.62,0.65 z"/>
    <path d="M 706.06,756.25 c -0.31,0.12 -0.69,0.54 -0.82,0.9 c -0.16,0.42 -0.23,5.2 -0.19,13.25 c 0.07,11.69 0.11,12.61 0.53,13.03 c 0.41,0.41 1.12,0.45 9.29,0.45 c 8.31,0 8.86,-0.03 9.36,-0.47 c 1,-0.9 0.89,-3.55 -0.17,-4.06 c -0.24,-0.11 -3.04,-0.26 -6.22,-0.34 c -5.14,-0.11 -5.86,-0.17 -6.25,-0.57 c -0.41,-0.4 -0.46,-1.3 -0.57,-10.93 c -0.15,-12.18 0.05,-11.31 -2.69,-11.43 c -0.93,-0.04 -1.94,0.04 -2.25,0.17 z"/>
    <path d="M 737,756.76 c -7.04,2.79 -10.51,10.03 -8.36,17.43 c 0.75,2.6 2.26,5.21 3.79,6.55 c 0.6,0.54 2.05,1.45 3.23,2.02 c 1.69,0.84 2.55,1.1 4.17,1.27 c 2.44,0.26 6.4,0.04 7.8,-0.45 c 1.14,-0.4 3.54,-1.81 4.96,-2.92 c 1.26,-0.97 2.94,-3.61 3.76,-5.89 c 0.56,-1.55 0.65,-2.21 0.65,-4.7 c 0,-2.84 -0.03,-2.94 -1.01,-5.21 c -0.95,-2.14 -1.23,-2.51 -3.58,-4.8 c -2.31,-2.25 -2.74,-2.56 -4.6,-3.27 c -1.95,-0.75 -2.21,-0.79 -5.49,-0.78 c -3.23,0 -3.58,0.05 -5.33,0.75 z m 9.25,4.88 c 1.96,0.91 3.11,2.14 4,4.26 c 0.68,1.62 0.75,2.09 0.75,4.4 c 0,2.33 -0.07,2.73 -0.72,4.08 c -0.89,1.86 -2.21,3.15 -4.11,4.01 c -1.34,0.61 -1.65,0.66 -4,0.56 c -2.96,-0.12 -4.34,-0.69 -6.09,-2.49 c -1.75,-1.81 -2.2,-3.11 -2.19,-6.34 c 0,-2.46 0.07,-2.9 0.7,-4.25 c 0.8,-1.74 2.11,-3.2 3.54,-3.94 c 1.52,-0.79 2.06,-0.89 4.5,-0.91 c 1.91,-0.01 2.46,0.07 3.62,0.61 z"/>
    <path d="M 763.62,756.24 c -0.7,0.29 -1.27,1.01 -1.48,1.85 c -0.21,0.89 0.23,2.3 0.8,2.56 c 0.24,0.11 2.15,0.26 4.26,0.34 c 5.21,0.19 4.79,-0.54 4.79,8.1 c -0.01,6.05 -0.06,6.9 -0.47,7.79 c -0.79,1.73 -1.29,2 -3.62,2 c -1.89,0 -2.14,-0.06 -3.35,-0.85 c -1.15,-0.72 -1.43,-0.81 -2.11,-0.61 c -1.07,0.3 -2.31,2.05 -2.1,2.92 c 0.23,0.86 1.48,2.05 3,2.85 c 1.18,0.61 1.59,0.69 4.69,0.76 c 3.08,0.09 3.52,0.05 4.69,-0.46 c 1.73,-0.74 3.51,-2.71 4.44,-4.91 c 0.72,-1.7 0.72,-1.7 0.8,-11.19 c 0.07,-10.09 0.03,-10.59 -1.1,-11.1 c -0.72,-0.34 -12.43,-0.38 -13.22,-0.05 z"/>
    <path d="M 786.86,756.58 c -0.74,0.64 -0.74,0.64 -0.74,13.53 c 0,15.04 -0.25,13.78 2.75,13.78 c 1.6,0 1.94,-0.07 2.42,-0.57 c 0.57,-0.56 0.57,-0.56 0.57,-13.43 c 0,-14.89 0.23,-13.68 -2.59,-13.82 c -1.52,-0.09 -1.77,-0.04 -2.42,0.53 z"/>
    <path d="M 814.86,756.23 c -1.21,0.51 -1.24,0.64 -1.32,8.62 c -0.14,12.34 -0.04,17.18 0.38,17.98 c 0.46,0.89 1.4,1.25 2.91,1.11 c 1.88,-0.17 2.02,-0.47 2.17,-3.98 c 0.16,-3.96 0.16,-3.96 4.24,-3.96 c 2.29,0 3.26,-0.11 4.39,-0.5 c 0.8,-0.28 1.64,-0.5 1.85,-0.5 c 0.23,0 1.07,-0.33 1.9,-0.71 c 1.77,-0.85 3.89,-2.98 4.4,-4.42 c 0.51,-1.49 0.46,-6.44 -0.09,-7.88 c -0.68,-1.75 -3.17,-4.08 -5.45,-5.05 c -1.86,-0.8 -1.86,-0.8 -8.36,-0.86 c -3.58,-0.04 -6.72,0.04 -7.01,0.15 z m 13.59,5.59 c 1.76,1.16 2.77,3.27 2.44,5.05 c -0.23,1.2 -1.89,2.96 -3.41,3.62 c -1.14,0.49 -1.62,0.54 -4.4,0.47 c -4.17,-0.11 -4.08,0.01 -4.08,-4.89 c 0,-2.08 0.11,-3.83 0.26,-4.1 c 0.44,-0.82 1.2,-0.97 4.76,-0.91 c 3.24,0.06 3.44,0.1 4.42,0.75 z"/>
    <path d="M 844.06,756.25 c -0.31,0.14 -0.69,0.54 -0.82,0.9 c -0.16,0.42 -0.23,5.2 -0.19,13.25 c 0.09,14.32 -0.07,13.35 2.25,13.54 c 2.83,0.23 3.45,-0.54 3.58,-4.41 c 0.11,-3.04 0.33,-3.69 1.27,-3.92 c 0.86,-0.23 3.24,0.07 4.08,0.51 c 0.97,0.5 2.42,2.23 4.12,4.89 c 1.1,1.73 1.68,2.39 2.3,2.65 c 0.96,0.4 3.02,0.46 3.96,0.1 c 1.06,-0.4 0.81,-1.29 -1.35,-4.72 c -1.09,-1.73 -2.05,-3.45 -2.15,-3.83 c -0.14,-0.59 0.06,-0.91 1.57,-2.51 c 1.79,-1.88 2.52,-3.3 3.09,-5.92 c 0.21,-1 0.15,-1.46 -0.41,-3.27 c -0.62,-1.99 -0.76,-2.23 -2.58,-3.99 c -1.57,-1.55 -2.25,-2.01 -3.79,-2.62 c -1.88,-0.75 -1.88,-0.75 -8.12,-0.8 c -3.44,-0.04 -6.5,0.05 -6.81,0.17 z m 13.56,5.62 c 1.55,0.96 2.25,2.25 2.25,4.16 c 0,1.21 -0.11,1.56 -0.78,2.38 c -0.42,0.53 -1.24,1.3 -1.81,1.7 c -0.95,0.66 -1.29,0.75 -3.41,0.84 c -1.3,0.06 -2.75,0.04 -3.24,-0.06 c -1.44,-0.26 -1.6,-0.76 -1.68,-5.1 c -0.07,-3.81 -0.06,-3.85 0.54,-4.34 c 0.55,-0.45 0.93,-0.49 3.76,-0.41 c 3,0.09 3.21,0.12 4.36,0.84 z"/>
    <path d="M 880.71,756.59 c -2.45,1.02 -3.52,1.8 -5.84,4.2 c -2,2.08 -2.35,2.58 -3.06,4.41 c -0.74,1.88 -0.81,2.34 -0.81,4.71 c 0,2.38 0.07,2.8 0.79,4.54 c 0.44,1.06 1.07,2.38 1.41,2.92 c 1.05,1.7 4.53,4.94 6.17,5.76 c 1.5,0.74 1.5,0.74 6.25,0.74 c 4.75,0 4.75,0 6.86,-1.09 c 2.81,-1.45 4.72,-3.31 6.21,-6.03 c 1.18,-2.14 1.18,-2.14 1.18,-6.76 c 0,-4.62 0,-4.62 -1.11,-6.62 c -1.65,-2.99 -3.34,-4.62 -6.24,-6.05 c -2.4,-1.2 -2.4,-1.2 -6.4,-1.26 c -3.73,-0.06 -4.1,-0.04 -5.41,0.53 z m 8.71,4.9 c 0.57,0.26 1.76,1.19 2.62,2.06 c 1.4,1.4 1.65,1.81 2.26,3.7 c 0.39,1.18 0.7,2.41 0.69,2.76 c 0,0.35 -0.35,1.59 -0.76,2.75 c -0.94,2.58 -2.55,4.4 -4.86,5.51 c -1.31,0.64 -1.79,0.72 -3.76,0.72 c -2.05,0 -2.41,-0.07 -4,-0.85 c -2.08,-1 -3.11,-2.02 -4,-3.98 c -0.6,-1.32 -0.65,-1.65 -0.57,-4.14 c 0.07,-2.49 0.15,-2.83 0.93,-4.3 c 1.1,-2.12 2.1,-3.15 3.91,-4.01 c 1.35,-0.65 1.75,-0.72 4,-0.72 c 1.91,0.01 2.75,0.12 3.55,0.49 z"/>
    <path d="M 916.5,756.16 c -2.9,0.96 -5.86,2.74 -7.54,4.5 c -1.55,1.62 -2.64,3.94 -3.17,6.74 c -0.45,2.26 -0.46,2.67 -0.15,4.12 c 0.19,0.88 0.35,1.9 0.35,2.27 c 0.03,1.64 1.04,3.49 3.11,5.65 c 1.75,1.85 2.35,2.29 4.4,3.27 c 2.38,1.14 2.38,1.14 6.19,1.23 c 4.2,0.1 5.6,-0.19 8.6,-1.75 c 2.6,-1.36 2.58,-1.3 2.66,-6.58 c 0.09,-5.26 -0.06,-5.88 -1.59,-6.38 c -1.05,-0.35 -2.42,-0.15 -2.9,0.42 c -0.24,0.28 -0.38,1.48 -0.46,3.84 c -0.11,2.98 -0.19,3.51 -0.62,4 c -0.95,1.06 -2.3,1.48 -4.88,1.49 c -2.1,0 -2.55,-0.09 -3.88,-0.71 c -0.93,-0.44 -1.99,-1.24 -2.79,-2.08 c -1.07,-1.16 -1.38,-1.7 -1.94,-3.51 c -0.71,-2.36 -0.76,-2.77 -0.41,-3.85 c 0.12,-0.4 0.41,-1.39 0.64,-2.2 c 0.53,-1.91 2.36,-3.91 4.5,-4.94 c 1.36,-0.65 1.75,-0.71 4.17,-0.71 c 2.67,0 2.67,0 4.81,1.12 c 1.18,0.61 2.3,1.12 2.51,1.12 c 0.21,0 0.9,-0.47 1.51,-1.04 c 0.94,-0.86 1.12,-1.19 1.06,-1.8 c -0.11,-1.07 -2.14,-2.66 -4.66,-3.64 c -1.94,-0.74 -2.17,-0.78 -5.59,-0.75 c -1.96,0 -3.74,0.07 -3.95,0.14 z"/>
    <path d="M 940.11,756.24 c -1.26,0.51 -1.24,0.17 -1.15,13.61 c 0.05,8.95 0.16,12.7 0.38,13.15 c 0.38,0.79 1.79,1.19 3.1,0.86 c 1.29,-0.33 1.55,-1 1.56,-3.91 c 0,-1.32 0.11,-2.7 0.24,-3.05 c 0.34,-0.89 1.5,-1.4 3.19,-1.4 c 3.09,0 3.81,0.55 6.51,4.88 c 1.94,3.11 2.61,3.62 4.74,3.62 c 2.83,0 3.33,-0.97 1.62,-3.15 c -1.45,-1.85 -3.3,-5.12 -3.3,-5.84 c 0,-0.44 0.51,-1.15 1.76,-2.4 c 1.54,-1.55 1.84,-2.01 2.5,-3.84 c 0.93,-2.6 0.93,-3.31 -0.01,-5.74 c -0.66,-1.71 -1,-2.19 -2.69,-3.84 c -1.74,-1.68 -2.14,-1.94 -3.94,-2.54 c -1.95,-0.65 -2.16,-0.66 -8,-0.65 c -3.3,0.01 -6.22,0.11 -6.51,0.23 z m 13.86,5.59 c 1.25,0.82 2.01,2.3 2.02,3.88 c 0,1.91 -1.31,3.54 -3.83,4.69 c -1.34,0.61 -1.64,0.65 -4.3,0.57 c -3.85,-0.11 -3.73,0.03 -3.83,-4.54 c -0.09,-3.83 0.1,-4.8 1.01,-5.17 c 0.31,-0.12 2.2,-0.21 4.21,-0.17 c 3.52,0.05 3.67,0.07 4.7,0.75 z"/>
    <path d="M 978.02,756.3 c -0.93,0.5 -1.41,1.31 -2.86,4.83 c -0.75,1.79 -2.14,4.88 -3.1,6.88 c -3.56,7.4 -6.16,13.79 -6.03,14.78 c 0.11,0.75 1.04,1.21 2.41,1.23 c 1.84,0 2.42,-0.5 3.66,-3.09 c 0.78,-1.61 1.3,-2.41 1.79,-2.67 c 0.93,-0.49 11.43,-0.54 12.29,-0.04 c 0.31,0.17 1.04,1.31 1.68,2.67 c 1.3,2.7 1.82,3.12 3.95,3.12 c 1.57,0 2.44,-0.5 2.44,-1.43 c 0,-0.35 -0.5,-1.77 -1.11,-3.17 c -0.61,-1.39 -1.75,-3.99 -2.52,-5.78 c -0.79,-1.79 -2.24,-5.11 -3.24,-7.38 c -0.99,-2.27 -2.27,-5.21 -2.86,-6.54 c -1.4,-3.2 -1.8,-3.56 -4.09,-3.65 c -1.14,-0.05 -2.02,0.04 -2.4,0.24 z m 3.27,8.95 c 1.39,2.81 2.7,5.94 2.7,6.45 c 0,0.99 -0.89,1.3 -3.66,1.3 c -4.09,0 -4.56,-0.44 -3.5,-3.25 c 0.74,-1.94 2.25,-5.12 2.67,-5.65 c 0.54,-0.64 1.09,-0.28 1.79,1.15 z"/>
    <path d="M 1001.06,756.25 c -0.31,0.12 -0.69,0.54 -0.82,0.9 c -0.16,0.42 -0.23,5.15 -0.19,13.12 c 0.07,12.2 0.09,12.47 0.59,12.97 c 0.97,0.97 3.15,0.96 4.12,-0.01 c 0.44,-0.44 0.49,-0.84 0.49,-4.05 c 0,-3.33 0.33,-8.32 0.64,-9.64 c 0.34,-1.5 1.8,0.3 5.35,6.59 c 2.1,3.71 2.91,4.61 4.17,4.61 c 0.88,0 2,-1.15 3.04,-3.08 c 3.4,-6.39 5.16,-9.49 5.47,-9.6 c 0.85,-0.34 0.95,0.35 1.07,7.67 c 0.15,8.44 0.05,8.12 2.5,8.12 c 2.33,0 2.35,-0.06 2.5,-5.2 c 0.07,-2.36 0.07,-8.2 0,-12.97 c -0.15,-10.12 0,-9.57 -2.61,-9.57 c -2.19,0 -2.62,0.39 -4.72,4.14 c -1.59,2.85 -5.24,9.09 -6.34,10.84 c -0.25,0.4 -0.64,0.85 -0.88,1 c -0.61,0.38 -1.48,-0.51 -2.74,-2.84 c -0.57,-1.04 -1.76,-3.12 -2.66,-4.64 c -5.09,-8.61 -4.92,-8.4 -7.1,-8.54 c -0.72,-0.05 -1.57,0.03 -1.89,0.16 z"/>
    <path d="M 1040.06,756.26 c -0.31,0.12 -0.69,0.53 -0.82,0.89 c -0.16,0.42 -0.23,5.2 -0.19,13.25 c 0.09,14.57 -0.12,13.47 2.58,13.47 c 1.39,0 1.7,-0.09 2.24,-0.62 c 0.61,-0.62 0.61,-0.62 0.74,-7.25 c 0.06,-3.65 0.2,-9.05 0.3,-12.01 c 0.19,-6.06 0.05,-6.99 -1.16,-7.61 c -0.79,-0.41 -2.79,-0.47 -3.67,-0.11 z"/>
  </g>
</svg>
